<?xml version="1.0" encoding="UTF-8" standalone="no"?>
<svg width="576px" height="96px" viewBox="0 0 576 96" version="1.1" xmlns="http://www.w3.org/2000/svg" xmlns:xlink="http://www.w3.org/1999/xlink">
    <!-- Generator: Sketch 46.2 (44496) - http://www.bohemiancoding.com/sketch -->
    <title>icons-services</title>
    <desc>Created with Sketch.</desc>
    <defs></defs>
    <g id="Symbols" stroke="none" stroke-width="1" fill="none" fill-rule="evenodd">
        <g id="icons-services" fill="#DE3C3F">
            <g id="icon-services/augmentation">
                <g id="Group-2" transform="translate(24.000000, 0.000000)">
                    <path d="M84.2283559,54.1237503 C84.231521,53.9585338 84.2331429,53.7935427 84.2331429,53.6287347 C84.2311837,46.228898 81.8625306,39.4285714 77.8383673,33.8723265 C74.5402491,29.3245808 70.1322719,25.6292592 65.0187945,23.1821173 C62.4099159,28.5976015 56.8706625,32.3329591 50.4548571,32.3343673 C44.0399814,32.3329593 38.5014037,28.5986839 35.892054,23.1844713 C30.7789275,25.6316158 26.371247,29.3267845 23.0733061,33.8742857 C19.0471837,39.4305306 16.6785306,46.2308571 16.6765714,53.6287347 C16.6765714,53.7935426 16.6781933,53.9585337 16.6813614,54.1237502 C16.8417949,54.1190108 17.0028235,54.1166069 17.1644082,54.1165714 C26.090449,54.1185306 33.3198367,61.3479184 33.3217959,70.2739592 L25.9748571,70.2739592 C25.972898,67.828898 24.9952653,65.6502857 23.3946122,64.0437551 C21.7880816,62.443102 19.6094694,61.4654694 17.1644082,61.4635102 C14.7193469,61.4654694 12.5407347,62.443102 10.9342041,64.0437551 C9.33355102,65.6502857 8.35591837,67.828898 8.35395918,70.2739592 C8.35591837,72.7190204 9.33355102,74.8976327 10.9342041,76.5041633 C12.5407347,78.1048163 14.7193469,79.082449 17.1644082,79.0844082 C19.6094694,79.082449 21.7880816,78.1048163 23.3946122,76.5041633 C24.9952653,74.8976327 25.972898,72.7190204 25.9748571,70.2739592 L29.6483265,70.2739592 L33.3217959,70.2739592 C33.3209604,74.0795779 32.0057863,77.5773657 29.8051884,80.3379515 C35.5204386,84.7702309 42.6637021,87.4073148 50.4548571,87.4089796 C58.2460155,87.4073148 65.3906963,84.7688141 71.1039688,80.3373082 C68.903818,77.5770841 67.5887537,74.0797388 67.5879184,70.2739592 C67.5898776,61.3479184 74.8212245,54.1185306 83.7453061,54.1165714 C83.9068918,54.1166069 84.0679214,54.1190109 84.2283623,54.1237505 Z M91.4921164,56.0912943 C96.5040305,58.8340476 99.9013509,64.1553972 99.9026939,70.2739592 L92.5557551,70.2739592 C92.5537959,67.828898 91.5761633,65.6502857 89.9755102,64.0437551 C88.3689796,62.443102 86.1903673,61.4654694 83.7453061,61.4635102 C81.3022041,61.4654694 79.1216327,62.443102 77.515102,64.0437551 C75.914449,65.6502857 74.9368163,67.828898 74.9348571,70.2739592 C74.9368163,72.7190204 75.914449,74.8976327 77.515102,76.5041633 C79.1216327,78.1048163 81.3022041,79.082449 83.7453061,79.0844082 C86.1903673,79.082449 88.3689796,78.1048163 89.9755102,76.5041633 C91.5761633,74.8976327 92.5537959,72.7190204 92.5557551,70.2739592 L96.2292245,70.2739592 L99.9026939,70.2739592 C99.9007347,79.1980408 92.6713469,86.4293878 83.7453061,86.4313469 C81.3542792,86.430822 79.0847675,85.9114664 77.0432613,84.9796573 C69.8819883,91.0629627 60.5895861,94.7576998 50.4548571,94.7559184 C40.3184542,94.7576998 31.0259801,91.0630411 23.8661961,84.9798509 C21.8248995,85.9115125 19.5555302,86.4308221 17.1644082,86.4313469 C8.23836735,86.4293878 1.00897959,79.1980408 1.00702041,70.2739592 C1.00836342,64.1551825 4.40592221,58.8336742 9.41812537,56.0910056 C9.36230222,55.287507 9.32963265,54.4669941 9.32963265,53.6287347 C9.32767347,44.6478367 12.2233469,36.3154286 17.1252245,29.5601633 C21.4743503,23.5666437 27.4011957,18.7930423 34.3009549,15.8414281 C34.4813552,7.07233113 41.6409623,0.0215264054 50.4548571,0.0195918367 C59.2679086,0.0215262203 66.426989,7.07098192 66.6087075,15.838911 C73.5105469,18.7914839 79.4365709,23.5641728 83.7844898,29.5601633 C88.6863673,36.3134694 91.5820408,44.6458776 91.5800816,53.6287347 C91.5800816,54.4667753 91.5477637,55.2874451 91.4921164,56.0912943 Z M63.4572508,16.1769796 L63.4572508,16.1769796 L59.2653061,16.1769796 C59.2633469,13.7319184 58.2857143,11.5533061 56.6850612,9.94677551 C55.0785306,8.34612245 52.8999184,7.3684898 50.4548571,7.36653061 C48.0097959,7.3684898 45.8311837,8.34612245 44.2246531,9.94677551 C42.624,11.5533061 41.6463673,13.7319184 41.6444082,16.1769796 C41.6463673,18.6220408 42.624,20.8006531 44.2246531,22.4071837 C45.8311837,24.0078367 48.0097959,24.9854694 50.4548571,24.9874286 C52.8999184,24.9854694 55.0785306,24.0078367 56.6850612,22.4071837 C58.2857143,20.8006531 59.2633469,18.6220408 59.2653061,16.1769796 L62.9387755,16.1769796 L63.4572508,16.1769796 Z" id="Combined-Shape" fill-rule="nonzero"></path>
                </g>
            </g>
            <g id="icon-services/time-materials" transform="translate(144.000000, 0.000000)">
                <g id="Group" transform="translate(24.000000, 0.000000)">
                    <polyline id="Shape" fill-rule="nonzero" points="19.9741277 24.3819574 37.7422979 42.1501277 43.1591489 36.7332766 25.3909787 18.9671489"></polyline>
                    <polygon id="Shape" fill-rule="nonzero" points="24.2062979 13.266383 20.3785532 13.0968511 20.1293617 18.701617 19.7310638 19.0999149 16.379234 19.2612766 11.6486809 11.3770213 12.384 10.6396596 22.235234 16.5508085 24.2062979 13.266383 26.1753191 9.98195745 11.1972766 0.994723404 2.00170213 10.1902979 12.1695319 27.1332766 23.0542979 26.6083404 27.6500426 22.0146383 28.1341277 11.1564255 26.1753191 9.98195745 24.2062979 13.266383"></polygon>
                    <path d="M46.4701277,65.7763404 C46.4701277,65.7763404 69.1322553,88.4384681 70.4129362,89.7171064 L70.4108936,89.7171064 C73.2051064,92.5154043 76.9041702,93.9288511 80.5685106,93.924766 C84.2328511,93.9288511 87.9319149,92.5154043 90.7261277,89.7171064 C93.522383,86.9228936 94.9378723,83.2238298 94.9337872,79.5594894 C94.9378723,75.8971915 93.522383,72.1981277 90.7240851,69.4018723 L66.7118298,45.389617 L61.2949787,50.8044255 L64.8674043,54.3768511 C71.3218723,60.8313191 84.3513191,73.860766 85.307234,74.8187234 L85.3092766,74.820766 C86.6267234,76.1382128 87.2701277,77.8314894 87.2742128,79.5594894 C87.2701277,81.2874894 86.6267234,82.980766 85.3092766,84.3002553 C83.9897872,85.6177021 82.2965106,86.2611064 80.5685106,86.2651915 C78.8405106,86.2611064 77.147234,85.6177021 75.8297872,84.3002553 L75.8277447,84.3002553 C75.1904681,83.6629787 69.2037447,77.6762553 63.378383,71.8529362 C60.4657021,68.9382128 57.5918298,66.066383 55.4491915,63.9217021 C53.3024681,61.7770213 51.8890213,60.3635745 51.8869787,60.3615319 L46.4701277,65.7763404 L46.4701277,65.7763404 Z" id="Shape" fill-rule="nonzero"></path>
                    <path d="M88.7775319,17.2963404 L86.0691064,14.5879149 L72.941617,27.7154043 L68.4255319,23.1993191 L85.2255319,6.39931915 L80.1273191,4.13617021 C77.051234,2.76970213 73.6299574,1.98740426 70.0330213,1.98740426 C56.2784681,1.98944681 45.1363404,13.133617 45.1342979,26.8881702 C45.1322553,29.1390638 45.4590638,31.2919149 45.9962553,33.3099574 L49.6973617,32.3234043 L46.9889362,29.6170213 C34.4497021,42.1562553 8.17429787,68.4337021 7.20204255,69.4039149 C4.40374468,72.1981277 2.99029787,75.8971915 2.99438298,79.5594894 C2.99029787,83.2238298 4.40374468,86.9228936 7.20204255,89.7191489 C9.99625532,92.5154043 13.6953191,93.9308936 17.3596596,93.924766 C21.024,93.9308936 24.7230638,92.5154043 27.5172766,89.7171064 L67.3041702,49.9302128 L64.5977872,47.2217872 L63.6091915,50.9228936 C65.6292766,51.4621277 67.7821277,51.7868936 70.0330213,51.7868936 C83.7855319,51.7828085 94.9297021,40.6406809 94.9317447,26.8881702 C94.9337872,22.7989787 93.924766,18.9385532 92.1845106,15.5499574 L89.7865532,10.8704681 L86.0691064,14.5879149 L88.7775319,17.2963404 L85.3685106,19.0427234 C86.5817872,21.4141277 87.2721702,24.0571915 87.2721702,26.8881702 C87.2701277,31.6595745 85.3480851,35.9448511 82.2229787,39.0781277 C79.0917447,42.203234 74.8064681,44.1252766 70.0330213,44.1273191 C68.5174468,44.1273191 67.0365957,43.9108085 65.586383,43.5227234 L63.4519149,42.9528511 L61.8873191,44.5154043 L22.1004255,84.3022979 C20.7809362,85.6177021 19.0876596,86.2611064 17.3596596,86.2651915 C15.6316596,86.2611064 13.938383,85.6177021 12.6188936,84.3022979 C11.3014468,82.9828085 10.6580426,81.2895319 10.6539574,79.5594894 C10.6580426,77.8314894 11.3014468,76.1382128 12.6188936,74.820766 C13.5891064,73.8485106 39.8665532,47.5710638 52.4057872,35.0318298 L53.9662979,33.4713191 L53.3984681,31.3388936 C53.010383,29.8825532 52.7938723,28.4017021 52.7938723,26.8881702 C52.7959149,22.1147234 54.7159149,17.8294468 57.8410213,14.6982128 C60.9742979,11.5710638 65.2595745,9.64902128 70.0330213,9.64697872 C72.5228936,9.64902128 74.8677447,10.1841702 77.0185532,11.136 L78.5729362,7.63710638 L75.8645106,4.92868085 L57.5938723,23.1993191 L72.941617,38.5470638 L91.4859574,20.004766 L88.7775319,17.2963404 L88.7775319,17.2963404 Z" id="Shape" fill-rule="nonzero"></path>
                </g>
            </g>
            <g id="icon-services/recruiting" transform="translate(288.000000, 0.000000)" stroke="#DE3C3F" stroke-width="0.5" fill-rule="nonzero">
                <path d="M39.75,44.2857 C39.75,53.8924119 31.9637119,61.6787 22.357,61.6787 C12.7511076,61.6787 4.965,53.8922313 4.965,44.2857 C4.965,34.6790299 12.7512464,26.8917 22.357,26.8917 C31.963573,26.8917 39.75,34.6788493 39.75,44.2857 Z M44.7148,83.9996 L39.7148,83.9996 C39.7148,66.1692205 54.1697557,51.7146 71.9998,51.7146 C89.8306767,51.7146 104.2858,66.1690529 104.2858,83.9996 L99.2858,83.9996 C99.2858,68.9305286 87.0693048,56.7146 71.9998,56.7146 C56.9311535,56.7146 44.7148,68.9306702 44.7148,83.9996 Z M139.0361,44.2857 C139.0361,53.8920925 131.249131,61.6787 121.6431,61.6787 C112.037069,61.6787 104.2501,53.8920925 104.2501,44.2857 C104.2501,34.6791687 112.037208,26.8917 121.6431,26.8917 C131.248992,26.8917 139.0361,34.6791687 139.0361,44.2857 Z M144,79.0357 L139,79.0357 C139,69.449547 131.229423,61.6787 121.644,61.6787 C112.057482,61.6787 104.286,69.4496415 104.286,79.0357 L104.286,83.9997 L99.286,83.9997 L99.286,79.0357 C99.286,66.6881399 109.296136,56.6787 121.644,56.6787 C133.990886,56.6787 144,66.6881622 144,79.0357 Z M5,79.0357 L0,79.0357 C0,66.688314 10.0099622,56.6787 22.357,56.6787 C34.7048637,56.6787 44.715,66.6881399 44.715,79.0357 L44.715,83.9997 L39.715,83.9997 L39.715,79.0357 C39.715,69.4496415 31.9435178,61.6787 22.357,61.6787 C12.771347,61.6787 5,69.4497767 5,79.0357 Z M94.3574,34.357 C94.3574,46.704386 84.3474378,56.714 72.0004,56.714 C59.6533622,56.714 49.6434,46.704386 49.6434,34.357 C49.6434,22.009614 59.6533622,12 72.0004,12 C84.3474378,12 94.3574,22.009614 94.3574,34.357 Z M34.75,44.2857 C34.75,37.4401692 29.2020455,31.8917 22.357,31.8917 C15.5128259,31.8917 9.965,37.4402979 9.965,44.2857 C9.965,51.1308595 15.5125832,56.6787 22.357,56.6787 C29.2022881,56.6787 34.75,51.1309881 34.75,44.2857 Z M134.0361,44.2857 C134.0361,37.4405406 128.487517,31.8917 121.6431,31.8917 C114.798683,31.8917 109.2501,37.4405406 109.2501,44.2857 C109.2501,51.1306168 114.798441,56.6787 121.6431,56.6787 C128.487759,56.6787 134.0361,51.1306168 134.0361,44.2857 Z M89.3574,34.357 C89.3574,24.7710767 81.586053,17 72.0004,17 C62.414747,17 54.6434,24.7710767 54.6434,34.357 C54.6434,43.9429233 62.414747,51.714 72.0004,51.714 C81.586053,51.714 89.3574,43.9429233 89.3574,34.357 Z" id="Combined-Shape"></path>
            </g>
            <g id="icon-services/not-sure" transform="translate(432.000000, 0.000000)">
                <g id="Group" transform="translate(24.000000, 0.000000)">
                    <polygon id="Fill-9" points="43.5611345 68.9725091 50.8222255 68.9725091 50.8222255 61.7114182 43.5611345 61.7114182"></polygon>
                    <path d="M39.9312873,39.9304145 C39.9382691,35.9228509 43.1848145,32.6780509 47.1923782,32.6710691 C51.1999418,32.6780509 54.4447418,35.9228509 54.4517236,39.9304145 C54.4447418,43.9379782 51.1999418,47.1827782 47.1923782,47.1915055 L43.5618327,47.1915055 L43.5618327,58.0813964 L50.8211782,58.0813964 L50.8211782,54.1431273 C57.0300582,52.4937921 61.7098858,46.6591645 61.7128145,39.9304145 C61.7093236,31.9100509 55.2127418,25.4134691 47.1923782,25.4099782 C39.1702691,25.4134691 32.6736873,31.9100509 32.6719418,39.9304145 L39.9312873,39.9304145 Z" id="Fill-11"></path>
                    <path d="M47.1918545,90.7514182 L47.1918545,87.1208727 C36.1536,87.1191273 26.1940364,82.6577455 18.9556364,75.4263273 C11.7242182,68.1879273 7.26283636,58.2283636 7.26109091,47.1901091 C7.26283636,36.1518545 11.7242182,26.1922909 18.9556364,18.9556364 C26.1940364,11.7242182 36.1536,7.26109091 47.1918545,7.26109091 C58.2301091,7.26109091 68.1896727,11.7242182 75.4263273,18.9556364 C82.6577455,26.1922909 87.1208727,36.1518545 87.1226182,47.1901091 C87.1208727,58.2283636 82.6577455,68.1879273 75.4263273,75.4263273 C68.1896727,82.6577455 58.2301091,87.1191273 47.1918545,87.1208727 L47.1918545,90.7514182 L47.1918545,94.3819636 C73.2567273,94.3802182 94.3802182,73.2549818 94.3837091,47.1901091 C94.3802182,21.1269818 73.2567273,0.00174545455 47.1918545,0 C21.1269818,0.00174545455 0.00349090909,21.1269818 0,47.1901091 C0.00349090909,73.2549818 21.1269818,94.3802182 47.1918545,94.3819636 L47.1918545,90.7514182 Z" id="Fill-12"></path>
                </g>
            </g>
        </g>
    </g>
</svg>