<?xml version="1.0" encoding="UTF-8" standalone="no"?>
<svg width="203px" height="119px" viewBox="0 0 203 119" version="1.1" xmlns="http://www.w3.org/2000/svg" xmlns:xlink="http://www.w3.org/1999/xlink">
    <!-- Generator: Sketch 46.2 (44496) - http://www.bohemiancoding.com/sketch -->
    <title>logo-orginal</title>
    <desc>Created with Sketch.</desc>
    <defs></defs>
    <g id="Symbols" stroke="none" stroke-width="1" fill="none" fill-rule="evenodd">
        <g id="logo-orginal" fill="#FFFFFF">
            <g id="logo/original">
                <path d="M2.0664076,114 L2.0664076,97.8125003 L5.43515755,97.8125003 L5.43515755,104.385938 L12.1289074,104.385938 L12.1289074,97.8125003 L15.4976574,97.8125003 L15.4976574,114 L12.1289074,114 L12.1289074,106.617188 L5.43515755,106.617188 L5.43515755,114 L2.0664076,114 Z M27.3945322,114 L27.3945322,107.21875 L21.9585948,97.8125003 L25.6773448,97.8125003 L29.6257822,104.648438 L33.7492196,97.8125003 L36.4179696,97.8125003 L30.7632822,107.196875 L30.7632822,114 L27.3945322,114 Z M42.922657,114 L42.922657,97.8125003 L48.5664069,97.8125003 C50.5351668,97.8125003 51.9406214,98.1424449 52.7828131,98.802344 C53.6250048,99.4622431 54.0460944,100.565097 54.0460944,102.110938 C54.0460944,103.860946 53.4828187,105.222652 52.3562506,106.196094 C51.2296825,107.169536 49.6528754,107.65625 47.625782,107.65625 L46.225782,107.65625 L46.225782,114 L42.922657,114 Z M46.225782,105.435938 L46.882032,105.435938 C48.034121,105.435938 48.9437474,105.167972 49.6109382,104.632031 C50.278129,104.096091 50.6117194,103.368755 50.6117194,102.45 C50.6117194,100.838534 49.5872505,100.032813 47.538282,100.032813 L46.225782,100.032813 L46.225782,105.435938 Z M60.6601568,114 L60.6601568,97.8125003 L70.7773441,97.8125003 L70.7773441,100.032813 L64.0289068,100.032813 L64.0289068,104.55 L69.5632817,104.55 L69.5632817,106.715625 L64.0289068,106.715625 L64.0289068,111.703125 L71.2914066,111.703125 L71.2914066,114 L60.6601568,114 Z M78.1132816,114 L78.1132816,97.8125003 L84.1726565,97.8125003 C87.4612145,97.8125003 89.1054689,99.1505077 89.1054689,101.826563 C89.1054689,102.825526 88.8265654,103.735152 88.2687502,104.555469 C87.7109349,105.375785 86.9434946,106.004685 85.9664064,106.442188 L91.2601564,114 L87.1585939,114 L83.1445315,107.382813 L81.2851565,107.382813 L81.2851565,114 L78.1132816,114 Z M81.2851565,105.1625 L82.061719,105.1625 C84.5044395,105.1625 85.7257815,104.174489 85.7257815,102.198438 C85.7257815,100.754681 84.6356882,100.032813 82.455469,100.032813 L81.2851565,100.032813 L81.2851565,105.1625 Z M97.5679688,114 L97.5679688,97.8125003 L100.936719,97.8125003 L100.936719,114 L97.5679688,114 Z M116.092969,114.404687 C113.635665,114.404687 111.67058,113.631779 110.197656,112.085938 C108.724732,110.540096 107.988281,108.480221 107.988281,105.90625 C107.988281,103.303112 108.728378,101.235945 110.208594,99.7046877 C111.688809,98.1734301 113.686706,97.4078128 116.202344,97.4078128 C118.703398,97.4078128 120.695826,98.1734301 122.179687,99.7046877 C123.663549,101.235945 124.405468,103.292175 124.405468,105.873438 C124.405468,108.513034 123.663549,110.594784 122.179687,112.11875 C120.695826,113.642716 118.66694,114.404687 116.092969,114.404687 Z M116.136719,112.173438 C117.580476,112.173438 118.723433,111.606516 119.565625,110.472656 C120.407816,109.338796 120.828906,107.802093 120.828906,105.8625 C120.828906,103.981241 120.405994,102.471881 119.560156,101.334375 C118.714318,100.19687 117.595059,99.6281252 116.202344,99.6281252 C114.795045,99.6281252 113.670317,100.19687 112.828125,101.334375 C111.985933,102.471881 111.564844,103.992178 111.564844,105.895313 C111.564844,107.783864 111.98411,109.302338 112.822656,110.450781 C113.661202,111.599225 114.765878,112.173438 116.136719,112.173438 Z M131.435156,114 L131.435156,97.8125003 L134.399218,97.8125003 L141.902343,108.870313 L141.902343,97.8125003 L144.603906,97.8125003 L144.603906,114 L141.585156,114 L134.136718,102.942188 L134.136718,114 L131.435156,114 Z M152.836718,113.879688 L152.836718,111.451563 C154.440893,112.071357 155.764317,112.38125 156.807031,112.38125 C157.776827,112.38125 158.555205,112.133336 159.142187,111.6375 C159.729169,111.141664 160.022655,110.481775 160.022655,109.657813 C160.022655,107.521344 158.458609,106.453125 155.330468,106.453125 L154.335156,106.453125 L154.335156,104.517188 L155.177343,104.50625 C158.108608,104.50625 159.574218,103.547406 159.574218,101.629688 C159.574218,100.164055 158.67006,99.4312502 156.861718,99.4312502 C155.67317,99.4312502 154.404433,99.7338514 153.055468,100.339063 L153.055468,98.1296878 C154.47735,97.6411437 155.975773,97.3968753 157.55078,97.3968753 C159.22058,97.3968753 160.527599,97.7395802 161.471874,98.4250003 C162.41615,99.1104203 162.88828,100.058328 162.88828,101.26875 C162.88828,103.179176 161.696105,104.528121 159.311718,105.315625 C162.038815,105.942712 163.402343,107.40103 163.402343,109.690625 C163.402343,111.141674 162.855473,112.2901 161.761718,113.135938 C160.667962,113.981775 159.180477,114.404687 157.299218,114.404687 C155.702335,114.404687 154.21485,114.229689 152.836718,113.879688 Z M173.899218,105.414063 C174.912765,104.189057 176.210668,103.576563 177.792968,103.576563 C179.236725,103.576563 180.432546,104.052339 181.380468,105.003906 C182.328389,105.955474 182.802343,107.156764 182.802343,108.607813 C182.802343,110.306779 182.255473,111.697651 181.161718,112.780469 C180.067962,113.863287 178.660685,114.404687 176.939843,114.404687 C174.927333,114.404687 173.355994,113.688288 172.22578,112.255469 C171.095566,110.822649 170.530468,108.830221 170.530468,106.278125 C170.530468,103.470819 171.173951,101.28881 172.460937,99.7320315 C173.747922,98.1752529 175.554414,97.3968753 177.880468,97.3968753 C178.974223,97.3968753 180.33046,97.5937483 181.949218,97.9875003 L181.949218,100.35 C180.476294,99.7302055 179.156515,99.4203127 177.989843,99.4203127 C176.69192,99.4203127 175.68568,99.9453075 174.971093,100.995313 C174.256506,102.045318 173.899218,103.51822 173.899218,105.414063 Z M179.564843,109.14375 C179.564843,108.042703 179.322397,107.171357 178.837499,106.529688 C178.352601,105.888018 177.694534,105.567188 176.86328,105.567188 C176.068485,105.567188 175.399481,105.858851 174.856249,106.442188 C174.313017,107.025524 174.041405,107.747392 174.041405,108.607813 C174.041405,109.738027 174.307548,110.649476 174.839843,111.342188 C175.372137,112.034899 176.068484,112.38125 176.928905,112.38125 C177.730993,112.38125 178.37083,112.087763 178.848436,111.500781 C179.326043,110.913799 179.564843,110.12813 179.564843,109.14375 Z M195.497655,114.404687 C193.660146,114.404687 192.167192,113.617195 191.018749,112.042188 C189.870306,110.46718 189.296093,108.421888 189.296093,105.90625 C189.296093,103.361446 189.872128,101.308862 191.024218,99.7484377 C192.176307,98.1880133 193.692958,97.4078128 195.574217,97.4078128 C197.440893,97.4078128 198.952076,98.1861904 200.107811,99.742969 C201.263546,101.299748 201.841405,103.339571 201.841405,105.8625 C201.841405,108.451055 201.263546,110.521867 200.107811,112.075 C198.952076,113.628133 197.415373,114.404687 195.497655,114.404687 Z M195.530467,112.38125 C197.448185,112.38125 198.40703,110.222938 198.40703,105.90625 C198.40703,101.589562 197.462769,99.4312502 195.574217,99.4312502 C193.685666,99.4312502 192.741405,101.585916 192.741405,105.895313 C192.741405,110.219293 193.671083,112.38125 195.530467,112.38125 Z" id="HYPERION360"></path>
                <g id="Group-17" stroke-width="1">
                    <path d="M80.2855,75.9254 C80.2855,65.6004 88.6565,57.2304 98.9815,57.2304 C109.3075,57.2304 117.6775,65.6004 117.6775,75.9254" id="Fill-7"></path>
                    <polyline id="Fill-9" points="100.8346 44.0069 100.8346 0.8039 97.1286 0.8039 97.1286 44.0069"></polyline>
                    <polyline id="Fill-10" points="87.1124 44.7209 81.7024 31.1209 78.2594 32.4909 83.6684 46.0909"></polyline>
                    <polyline id="Fill-11" points="67.2568 62.4388 53.5268 57.3678 52.2428 60.8448 65.9728 65.9158"></polyline>
                    <polyline id="Fill-12" points="76.4815 51.7029 48.7415 23.7959 46.1135 26.4089 73.8535 54.3159"></polyline>
                    <polyline id="Fill-13" points="111.1815 44.7209 116.5915 31.1209 120.0345 32.4909 114.6255 46.0909"></polyline>
                    <polyline id="Fill-14" points="131.037 62.4388 144.767 57.3678 146.051 60.8448 132.321 65.9158"></polyline>
                    <polyline id="Fill-15" points="121.8124 51.7029 149.5524 23.7959 152.1804 26.4089 124.4404 54.3159"></polyline>
                    <polyline id="Fill-16" points="0.2397 77.7785 202.4357 77.7785 202.4357 74.0725 0.2397 74.0725"></polyline>
                </g>
            </g>
        </g>
    </g>
</svg>