<?xml version="1.0" encoding="UTF-8" standalone="no"?>
<svg width="768px" height="192px" viewBox="0 0 768 192" version="1.1" xmlns="http://www.w3.org/2000/svg" xmlns:xlink="http://www.w3.org/1999/xlink">
    <!-- Generator: Sketch 46.2 (44496) - http://www.bohemiancoding.com/sketch -->
    <title>icons-how-works</title>
    <desc>Created with Sketch.</desc>
    <defs>
        <path d="M111.168389,140.931121 C110.185139,143.926044 100.652949,150.891383 96.2991523,150.891383 C92.2028562,150.891383 83.3563515,144.1846 81.6237348,141.350449 C80.9525707,140.252583 80.9214201,137.12679 81.1031993,127.853203 C81.1234217,126.821543 81.1465254,125.748771 81.1762288,124.440707 C81.3429483,117.09881 81.3301283,117.70851 81.3301283,116.504667 C81.3301283,115.396043 80.5128448,113.757211 78.705197,111.327623 C77.7519361,110.046382 73.1860323,104.453113 72.0805055,103.017608 C65.4460872,94.4029419 62,86.9251049 62,78.1098583 C62,58.7849125 77.3163895,45 96.0971154,45 C113.932342,45 130.598305,59.2799603 130.598305,78.1098583 C130.598305,86.9251049 127.152217,94.4029419 120.517799,103.017608 C119.412272,104.453113 114.846368,110.046382 113.893108,111.327623 C112.08546,113.757211 111.268176,115.396043 111.268176,116.504667 C111.268176,117.71436 111.258448,117.106912 111.383874,124.350753 C111.407346,125.706391 111.425409,126.811005 111.44109,127.874622 C111.561457,136.038705 111.531723,139.824428 111.168389,140.931121 Z M85.0215611,135 C85.0175885,133.132037 85.0459854,130.811211 85.1024311,127.931595 C85.1200978,127.030317 85.1399913,126.096698 85.1646171,125 L107.394445,125 C107.413127,126.094935 107.428195,127.029456 107.441525,127.933589 C107.482166,130.69017 107.499985,133.094685 107.497435,135 L85.0215611,135 Z M86.8038958,141 C87.6597833,141.762672 88.720077,142.653151 89.7471525,143.431806 C92.5694419,145.571462 95.0648965,146.891383 96.2991523,146.891383 C98.3796853,146.891383 103.860226,143.198991 106.248162,141 L86.8038958,141 Z M85.2995859,119 C85.3354293,117.322911 85.3301283,117.279306 85.3301283,116.504667 C85.3301283,114.273604 84.2067717,112.02103 81.9143945,108.939935 C80.8949498,107.569739 76.3002839,101.941237 75.2496228,100.576973 C69.103862,92.59682 66,85.8615947 66,78.1098583 C66,61.0935003 79.4370648,49 96.0971154,49 C111.848562,49 126.598305,61.6380781 126.598305,78.1098583 C126.598305,85.8615947 123.494443,92.59682 117.348682,100.576973 C116.298021,101.941237 111.703355,107.569739 110.68391,108.939935 C108.391533,112.02103 107.268176,114.273604 107.268176,116.504667 C107.268176,117.279383 107.264194,117.324151 107.291531,119 L85.2995859,119 Z M140,79 L152,79 L152,85 L140,85 L140,79 Z M132.158948,111.13938 L141.351481,118.852832 L137.494755,123.449098 L128.302222,115.735647 L132.158948,111.13938 Z M64.7470368,115.735647 L55.5545035,123.449098 L51.6977778,118.852832 L60.8903112,111.13938 L64.7470368,115.735647 Z M52,85 L40,85 L40,79 L52,79 L52,85 Z M60.8903112,55.1703375 L51.6977778,47.4568862 L55.5545035,42.8606195 L64.7470368,50.5740708 L60.8903112,55.1703375 Z M128.302222,50.5740708 L137.494755,42.8606195 L141.351481,47.4568862 L132.158948,55.1703375 L128.302222,50.5740708 Z" id="path-1"></path>
        <filter x="-3.1%" y="-2.3%" width="106.2%" height="106.5%" filterUnits="objectBoundingBox" id="filter-2">
            <feOffset dx="0" dy="1" in="SourceAlpha" result="shadowOffsetOuter1"></feOffset>
            <feGaussianBlur stdDeviation="1" in="shadowOffsetOuter1" result="shadowBlurOuter1"></feGaussianBlur>
            <feColorMatrix values="0 0 0 0 0   0 0 0 0 0   0 0 0 0 0  0 0 0 0.5 0" type="matrix" in="shadowBlurOuter1"></feColorMatrix>
        </filter>
        <path d="M50.3393943,132.78337 C44.7725698,129.722254 41,123.801693 41,117 C41,107.058875 49.0588745,99 59,99 C68.9411255,99 77,107.058875 77,117 C77,123.801693 73.2274302,129.722254 67.6606057,132.78337 C76.3340101,136.379743 83,144.855173 83,153 C83,154.104569 82.1045695,155 81,155 C79.8954305,155 79,154.104569 79,153 C79,144.514908 69.2755519,135 59,135 C48.7244481,135 39,144.514908 39,153 C39,154.104569 38.1045695,155 37,155 C35.8954305,155 35,154.104569 35,153 C35,144.855173 41.6659899,136.379743 50.3393943,132.78337 Z M139.000872,100.024542 L127.089213,87.0424865 L89.6132452,87.0424865 L89.6132452,70.8038516 L65.0110957,70.8038516 L46.7925865,84.723368 L46.7925865,70.8038516 L35,70.8038516 L35,35.2316672 L108.210011,34.9934237 L108.104989,47.0283742 L155.663642,47.2853402 L155.663642,87.0424865 L145.192293,87.0424865 L145.192293,103.757968 C148.762991,107.047285 151,111.762402 151,117 C151,123.801693 147.22743,129.722254 141.660606,132.78337 C150.33401,136.379743 157,144.855173 157,153 C157,154.104569 156.104569,155 155,155 C153.895431,155 153,154.104569 153,153 C153,144.514908 143.275552,135 133,135 C122.724448,135 113,144.514908 113,153 C113,154.104569 112.104569,155 111,155 C109.895431,155 109,154.104569 109,153 C109,144.855173 115.66599,136.379743 124.339394,132.78337 C118.77257,129.722254 115,123.801693 115,117 C115,107.058875 123.058875,99 133,99 C135.104138,99 137.123952,99.3610371 139.000872,100.024542 Z M107.917409,70.9253795 L93.6132452,70.9253795 L93.6132452,83.0424865 L128.847678,83.0424865 L141.192293,96.4964057 L141.192293,83.0424865 L151.663642,83.0424865 L151.663642,51.263786 L108.074296,51.0333166 L107.917409,70.9253795 Z M39,39.2186714 L39,66.8038516 L50.7925865,66.8038516 L50.7925865,76.6333657 L63.6579108,66.8038516 L103.932268,66.8038516 L104.174839,39.0065763 L39,39.2186714 Z M59,131 C66.7319865,131 73,124.731986 73,117 C73,109.268014 66.7319865,103 59,103 C51.2680135,103 45,109.268014 45,117 C45,124.731986 51.2680135,131 59,131 Z M133,131 C140.731986,131 147,124.731986 147,117 C147,109.268014 140.731986,103 133,103 C125.268014,103 119,109.268014 119,117 C119,124.731986 125.268014,131 133,131 Z" id="path-3"></path>
        <filter x="-2.9%" y="-2.1%" width="105.7%" height="105.8%" filterUnits="objectBoundingBox" id="filter-4">
            <feOffset dx="0" dy="1" in="SourceAlpha" result="shadowOffsetOuter1"></feOffset>
            <feGaussianBlur stdDeviation="1" in="shadowOffsetOuter1" result="shadowBlurOuter1"></feGaussianBlur>
            <feColorMatrix values="0 0 0 0 0   0 0 0 0 0   0 0 0 0 0  0 0 0 0.5 0" type="matrix" in="shadowBlurOuter1"></feColorMatrix>
        </filter>
        <path d="M174.027881,93.3203456 L148.774854,48.4724626 C147.915961,46.9484466 146.303985,46.0006374 144.571859,46.0006374 C143.698625,46.0006374 142.842282,46.2412547 142.093978,46.6982683 L131.835713,52.9508132 C129.579009,54.3234474 128.811583,57.3306859 130.115697,59.6508106 L131.53996,62.1806389 C129.632231,62.8145301 127.782187,63.1947374 126.269007,63.067258 C124.625798,62.9311738 122.501672,62.432092 120.042914,61.8546104 C115.765343,60.8491168 110.441486,59.5979067 104.651054,59.5979067 L104.244394,59.5991815 C95.7450255,59.6798122 81.002354,60.490581 77.7933793,65.0062194 C77.3746096,65.5967676 76.8659668,66.2956733 76.325773,67.0391968 C75.4789912,66.8973759 74.5767559,66.7600169 73.5999451,66.6156465 C70.7826509,66.1994263 66.9263996,65.6292748 65.5779865,64.8643985 C64.4654102,64.234013 62.4397629,62.9879021 60.3863888,61.7032286 L61.542308,59.6524041 C62.8499278,57.3297298 62.0799523,54.3224913 59.8283478,52.9536814 L49.5656204,46.6963561 C48.8185912,46.2415734 47.9596989,46 47.088696,46 C45.3530643,46 43.7398127,46.949084 42.88347,48.4753308 L17.633948,93.3251261 C16.3311088,95.6455695 17.1010842,98.6489836 19.3504579,100.023849 L29.6131853,106.278943 C30.3602145,106.733726 31.2152824,106.973068 32.0862853,106.973068 C33.8209609,106.973068 35.4351686,106.023984 36.2937422,104.497738 L38.3228952,100.892621 L40.1608292,102.935159 C40.4508447,103.295926 42.174366,105.442041 44.5295475,108.384265 L43.8258613,109.33813 C41.2154023,112.887793 42.1262425,118.274434 45.8537395,121.347643 C47.3430174,122.575907 49.1302783,123.307001 50.9443099,123.451372 C50.7409802,126.30436 51.9644636,129.350161 54.4327831,131.387919 C56.0998946,132.761509 58.1389273,133.5181 60.1763665,133.5181 C60.6901084,133.5181 61.1879154,133.45914 61.6752053,133.367674 C62.1481538,135.305679 63.2498943,137.153174 64.9291165,138.535369 C66.5997337,139.91374 68.641316,140.669374 70.6813047,140.669374 C71.542428,140.669374 72.3726374,140.528509 73.1496242,140.273551 C73.6898181,141.999621 74.7303685,143.62594 76.242274,144.86982 C77.9132099,146.242135 79.9544735,147 81.9906379,147 C84.4650126,147 86.6987701,145.896985 88.1182529,143.96854 L89.3873102,142.2498 C94.690771,144.092514 97.9867504,144.72513 98.6483684,144.840818 C99.2545328,144.988694 101.398099,145.465148 103.909761,145.465148 C105.908956,145.465148 108.136659,145.164297 110.006144,144.155298 C112.770215,142.668569 114.747739,140.178578 115.803906,138.589548 C117.586705,138.682289 120.360338,138.55959 122.378974,137.236354 C125.032457,135.498173 125.975486,132.476593 126.298008,130.275343 C128.217848,130.192163 130.755962,129.778492 132.528882,128.342437 C134.985091,126.345791 135.771957,123.740431 135.94756,121.635109 C139.036385,121.848 142.746035,120.97126 144.870479,117.083458 C146.427002,114.222821 146.417441,111.244584 144.937724,108.552538 C146.138262,107.859687 147.581647,106.881921 149.13562,105.471999 C150.153225,104.551916 150.886868,103.781941 151.536695,103.101201 C152.179191,102.427472 152.754123,101.832144 153.504657,101.185186 L155.366812,104.492001 C156.228254,106.022072 157.839912,106.971156 159.572039,106.971156 C160.445272,106.971156 161.301615,106.729583 162.049919,106.272251 L172.312965,100.017156 C174.56457,98.6493023 175.331995,95.6455695 174.027881,93.3203456 Z M134.398048,57.1585888 L144.533296,50.9806193 L169.74808,95.8116114 L159.612832,101.989581 L134.398048,57.1585888 Z M147.968865,99.7016446 C147.35059,100.349877 146.713194,101.019781 145.8253,101.820989 C144.131736,103.360621 142.599115,104.260307 141.603183,104.753652 C141.593622,104.758433 141.578962,104.767038 141.569401,104.771818 L139.069849,102.712389 L139.026506,102.677651 C138.874805,102.550171 136.637542,100.676224 131.912838,97.1769155 C128.696214,94.7917763 124.330045,91.6592893 118.640322,87.7848722 C117.906678,87.2857905 115.483933,85.723212 115.04126,85.4478565 C106.64515,80.2055857 96.371268,75.0646611 95.8747358,74.8167137 C95.5308601,74.6446165 95.1528838,74.5569744 94.7752261,74.5569744 C94.523773,74.5569744 94.27232,74.595537 94.0269222,74.6701124 L87.5857078,76.7196621 C87.0177872,76.9000454 86.5330469,77.2850332 86.2229533,77.7949507 C86.1674997,77.8864171 80.5609566,86.9849391 72.2671482,87.6261604 C71.87005,87.6659977 71.5045028,87.6876692 71.1641329,87.6876692 C70.2991853,87.6876692 69.9804869,87.5385183 69.9648706,87.5528598 C69.9310886,87.4661738 69.7293525,86.8214468 70.2800634,84.8404173 C71.9484498,81.5590981 80.8847543,69.1477057 81.4115628,68.4127871 C81.5415918,68.2324037 81.6904239,68.0290741 81.810892,67.8617574 C82.9390845,66.3485772 91.8537175,64.6441779 104.292518,64.5262595 L104.653285,64.5249847 C109.868785,64.5249847 114.675713,65.654452 118.914721,66.6516594 C121.568205,67.272484 123.853591,67.8114031 125.862666,67.9771263 C128.326205,68.1839616 131.215525,67.5057713 133.979597,66.507289 L151.048449,96.8231602 C150.906309,96.9350234 148.728961,98.9052172 147.968865,99.7016446 Z M32.0480415,101.993086 L21.9271348,95.7392668 L47.1269398,50.9815754 L57.2478465,57.2366699 L32.0480415,101.993086 Z M84.1539629,141.047988 C83.4948946,141.944168 82.5155342,142.076428 81.9912753,142.076428 C81.0938204,142.076428 80.1629023,141.717892 79.3738049,141.070934 C78.2009946,140.106234 77.5913245,138.678465 77.6512398,137.404627 C77.6789666,136.812804 77.8376784,136.252214 78.1758175,135.79265 C78.1758175,135.790101 78.1758175,135.790101 78.178367,135.790101 L78.605423,135.209114 L80.1415495,133.127057 L83.2979389,128.843431 C83.9595569,127.94502 84.9411481,127.811485 85.4654071,127.811485 C86.3628619,127.811485 87.2925053,128.170021 88.0828774,128.818254 C89.7993873,130.229132 90.3443616,132.648053 89.278634,134.098768 L87.6236329,136.343361 L84.5947229,140.449791 L84.1539629,141.047988 Z M70.6816234,135.747076 C69.7832125,135.747076 68.8532504,135.388541 68.0616035,134.736484 C66.9885458,133.854645 66.3728204,132.579851 66.3221474,131.393656 C66.3074872,130.996557 66.3677212,130.617625 66.4808592,130.256858 C66.5723257,129.971942 66.6902441,129.696268 66.8693526,129.454694 L68.6496021,127.038004 L75.4012288,117.877017 C75.5985031,117.608673 75.8222294,117.415223 76.0555167,117.268303 C76.6052715,116.917097 77.1980506,116.844753 77.5661473,116.844753 C78.4636022,116.844753 79.3919707,117.203289 80.1788372,117.84929 C81.8966218,119.262718 82.4451019,121.682914 81.3755499,123.133629 L75.6437583,130.911465 L72.8436737,134.714812 C72.7882202,134.791937 72.7283049,134.853127 72.6667961,134.919417 C72.0195195,135.629158 71.1615833,135.747076 70.6816234,135.747076 Z M56.0597386,122.85923 C56.1416441,122.66323 56.2426716,122.474242 56.3701509,122.301189 L58.9022101,118.865938 L59.0261838,118.699897 L61.1432976,115.827467 C61.1515837,115.817906 61.1563642,115.805796 61.1636943,115.797191 L66.9506207,107.943505 C67.6147883,107.04605 68.5960608,106.912834 69.1228693,106.912834 C70.0203242,106.912834 70.9464619,107.270095 71.7377901,107.922152 C73.4578056,109.331756 74.0018239,111.749721 72.9335467,113.205217 L72.4717526,113.830822 C72.094095,114.167686 71.7428893,114.538013 71.4372575,114.954234 L64.5941644,124.240469 L62.9063374,126.52968 C62.6201462,126.915942 62.3830346,127.329613 62.1809797,127.754119 C62.0114322,127.938008 61.8310488,128.084928 61.6433355,128.198066 C61.1056912,128.52282 60.5355396,128.59134 60.1757291,128.59134 C59.2808239,128.59134 58.3521366,128.23631 57.5678197,127.589352 C56.0571891,126.340373 55.4535742,124.316001 56.0597386,122.85923 Z M47.723862,112.387118 C47.750314,112.346324 47.7646554,112.300432 47.793657,112.260913 L50.7384307,108.265072 L51.1992686,107.640742 C51.8618427,106.743287 52.8434339,106.611027 53.3692863,106.611027 C54.2676973,106.611027 55.1941537,106.968288 55.9867567,107.61907 C57.700717,109.025168 58.2469661,111.431022 57.1907994,112.883969 C57.186019,112.890024 57.1837881,112.897035 57.1812385,112.902134 L55.8580025,114.694494 L55.4899058,115.191345 L53.7698903,117.523581 C53.4065741,118.016607 52.9470109,118.27539 52.5189989,118.413705 C52.1677932,118.525568 51.838259,118.555526 51.6024221,118.555526 C50.7049673,118.555526 49.7775548,118.19954 48.9884575,117.548758 C47.3194337,116.173893 46.7687228,113.847394 47.723862,112.387118 Z M140.544785,114.726683 C139.197647,117.201058 136.380352,116.868974 134.98031,116.522549 L111.764722,102.581085 C110.597967,101.883454 109.080006,102.257606 108.384606,103.426592 C107.684425,104.589841 108.062402,106.106527 109.229157,106.806708 L131.034823,119.899796 C131.150192,121.004086 131.11896,123.142872 129.427627,124.518693 C128.537502,125.23672 126.261677,125.420928 124.719495,125.345078 L105.107749,113.994633 C103.928883,113.312618 102.423033,113.714497 101.741974,114.893044 C101.061234,116.06936 101.463113,117.578078 102.64166,118.257543 L121.464309,129.151931 C121.315158,130.478672 120.872486,132.342102 119.681829,133.12132 C118.661675,133.792499 116.275261,133.780388 114.916012,133.559212 C114.829326,133.54487 114.74519,133.562717 114.658822,133.556662 L98.2805904,125.647841 C97.0536013,125.054744 95.5789836,125.571991 94.9893915,126.7942 C94.3975685,128.019914 94.9100356,129.493576 96.1370246,130.085399 L110.761459,137.147437 C109.979692,138.101302 108.928306,139.145358 107.674865,139.820361 C105.374818,141.058186 101.179153,140.401349 99.764769,140.045362 C99.6927432,140.026241 99.6203986,140.012855 99.5480541,139.999789 C99.5021615,139.992459 96.9401447,139.555842 92.4617941,138.086004 L93.2438801,137.026332 C95.85657,133.473163 94.9457298,128.086522 91.2121775,125.016818 C89.8746001,123.916034 88.298955,123.219678 86.678692,122.983841 C87.2883622,119.861234 86.0760333,116.324637 83.3141925,114.050086 C81.8634772,112.855604 80.1313511,112.128972 78.365443,111.959424 C78.538815,109.127789 77.3140568,106.129155 74.8686837,104.122629 C73.2025282,102.74649 71.1612646,101.989899 69.1212758,101.989899 C66.6469011,101.989899 64.4121876,103.092915 62.9853746,105.02104 L61.5948933,106.907098 C61.0056199,105.752453 60.1805096,104.688001 59.1157381,103.814448 C57.4473517,102.441814 55.4060881,101.685542 53.3683302,101.685542 C51.0791193,101.685542 49.0031176,102.640682 47.5740738,104.310024 C45.447399,101.653991 43.9919032,99.8425093 43.9558903,99.7982102 C43.9268887,99.7634721 43.8982059,99.7296901 43.8669734,99.695908 L40.8718454,96.3664654 L57.9671489,66.0034268 C60.0023571,67.2737588 62.0015525,68.5029787 63.1514165,69.153761 C65.2975319,70.371189 69.1537831,70.9413406 72.8828736,71.4910954 C72.9478881,71.5019311 73.0138587,71.5114921 73.0788732,71.521053 C70.2893057,75.4098115 67.3145743,79.7329559 65.766656,82.8507829 C65.7016415,82.9808118 65.6487376,83.1165774 65.6079441,83.2574421 C65.0065602,85.3312129 64.3917909,88.3406823 66.0168343,90.5059196 C67.0704513,91.9085115 68.8025774,92.6182529 71.165089,92.6182529 C71.6558846,92.6182529 72.1900232,92.5892513 72.7047212,92.5376222 C81.9163811,91.8256499 88.1208025,83.7829758 89.9179431,81.1524388 L94.5610608,79.6752715 C97.2964495,81.0705333 105.8296,85.4876938 112.734202,89.8178496 C112.953148,89.9574396 115.673877,91.7255785 115.86892,91.8578384 C121.796711,95.8995721 126.30502,99.1496589 129.531204,101.552964 C131.703453,103.208284 133.957926,104.952202 135.778968,106.388575 C135.834422,106.434468 135.868204,106.46092 135.872666,106.464426 L139.397152,109.370637 C141.771774,111.670365 141.199073,113.52519 140.544785,114.726683 Z" id="path-5"></path>
        <filter x="-2.2%" y="-2.5%" width="104.4%" height="106.9%" filterUnits="objectBoundingBox" id="filter-6">
            <feOffset dx="0" dy="1" in="SourceAlpha" result="shadowOffsetOuter1"></feOffset>
            <feGaussianBlur stdDeviation="1" in="shadowOffsetOuter1" result="shadowBlurOuter1"></feGaussianBlur>
            <feColorMatrix values="0 0 0 0 0   0 0 0 0 0   0 0 0 0 0  0 0 0 0.5 0" type="matrix" in="shadowBlurOuter1"></feColorMatrix>
        </filter>
        <filter x="-2.9%" y="-2.5%" width="105.8%" height="107.0%" filterUnits="objectBoundingBox" id="filter-7">
            <feOffset dx="0" dy="1" in="SourceAlpha" result="shadowOffsetOuter1"></feOffset>
            <feGaussianBlur stdDeviation="1" in="shadowOffsetOuter1" result="shadowBlurOuter1"></feGaussianBlur>
            <feColorMatrix values="0 0 0 0 0   0 0 0 0 0   0 0 0 0 0  0 0 0 0.5 0" type="matrix" in="shadowBlurOuter1" result="shadowMatrixOuter1"></feColorMatrix>
            <feMerge>
                <feMergeNode in="shadowMatrixOuter1"></feMergeNode>
                <feMergeNode in="SourceGraphic"></feMergeNode>
            </feMerge>
        </filter>
    </defs>
    <g id="Symbols" stroke="none" stroke-width="1" fill="none" fill-rule="evenodd">
        <g id="icons-how-works">
            <g id="icon-bulb" transform="translate(192.000000, 0.000000)">
                <g id="Group-3" stroke-width="1" fill-rule="evenodd" transform="translate(128.000000, 42.000000)"></g>
                <g id="Combined-Shape">
                    <use fill="black" fill-opacity="1" filter="url(#filter-2)" xlink:href="#path-1"></use>
                    <use fill="#F2F7FC" fill-rule="evenodd" xlink:href="#path-1"></use>
                </g>
            </g>
            <g id="icon-tell-us" fill-rule="nonzero">
                <g id="Combined-Shape">
                    <use fill="black" fill-opacity="1" filter="url(#filter-4)" xlink:href="#path-3"></use>
                    <use fill="#F2F7FC" fill-rule="evenodd" xlink:href="#path-3"></use>
                </g>
            </g>
            <g id="icon-handshake" transform="translate(384.000000, 0.000000)" fill-rule="nonzero">
                <g id="Shape">
                    <use fill="black" fill-opacity="1" filter="url(#filter-6)" xlink:href="#path-5"></use>
                    <use fill="#F2F7FC" fill-rule="evenodd" xlink:href="#path-5"></use>
                </g>
            </g>
            <g id="icon-grow" transform="translate(576.000000, 0.000000)" fill="#F2F7FC">
                <g id="Group-5" filter="url(#filter-7)" transform="translate(36.000000, 47.000000)">
                    <path d="M105.829294,9.25746905 L92.4206474,6.27776981 L93.7222302,0.420647446 L117.683097,5.88588292 L111.155829,30.6525493 L105.369671,29.0724384 L109.26837,14.1998446 L3.90386397,75.0985956 L0.901404411,69.903864 L105.829294,9.25746905 Z M13,89 L13,99 L7,99 L7,89 L13,89 Z M31,78.8120772 L31,99 L25,99 L25,78.8120772 L31,78.8120772 Z M49,70.8733381 L49,99 L43,99 L43,70.8733381 L49,70.8733381 Z M67,61.350342 L67,99 L61,99 L61,61.350342 L67,61.350342 Z M85,53.5142767 L85,99 L79,99 L79,53.5142767 L85,53.5142767 Z M103,44.1632593 L103,99 L97,99 L97,44.1632593 L103,44.1632593 Z M121,35 L121,99 L115,99 L115,35 L121,35 Z" id="Combined-Shape" fill-rule="nonzero"></path>
                </g>
            </g>
        </g>
    </g>
</svg>