<?xml version="1.0" encoding="UTF-8" standalone="no"?>
<svg width="576px" height="48px" viewBox="0 0 576 48" version="1.1" xmlns="http://www.w3.org/2000/svg" xmlns:xlink="http://www.w3.org/1999/xlink">
    <!-- Generator: Sketch 46.2 (44496) - http://www.bohemiancoding.com/sketch -->
    <title>icons-48</title>
    <desc>Created with Sketch.</desc>
    <defs></defs>
    <g id="Symbols" stroke="none" stroke-width="1" fill="none" fill-rule="evenodd">
        <g id="icons-48">
            <g id="icons/ecommerce" transform="translate(432.000000, 0.000000)" fill="#DE3C3F">
                <g id="icon/industries/ecommerce">
                    <g id="Group-8" transform="translate(0.000000, 6.000000)">
                        <polygon id="Shape" fill-rule="nonzero" points="3.006 8.06485714 3.006 9.78771429 33.1542857 9.78771429 28.4031429 22.6688571 10.3371429 22.6688571 4.61828571 7.458 3.006 8.06485714 1.39371429 8.67085714 7.95171429 26.1137143 30.8048571 26.1137143 38.0974286 6.342 0.517714286 6.342 1.39371429 8.67085714 3.006 8.06485714"></polygon>
                        <polygon id="Shape" fill-rule="nonzero" points="3.006 8.06485714 2.89885714 8.06485714 2.89885714 9.89485714 33.0008571 9.89485714 28.3285714 22.5617143 10.4108571 22.5617143 4.68085714 7.32 2.89885714 7.99114286 2.89885714 9.78771429 3.11314286 9.78771429 3.11314286 7.90971429 1.25571429 8.60828571 7.87714286 26.2208571 30.8794286 26.2208571 38.2508571 6.23485714 0.363428571 6.23485714 1.33028571 8.80885714 3.04371429 8.16514286 3.006 8.06485714 2.96828571 7.96457143 1.45628571 8.53285714 0.672857143 6.44914286 37.944 6.44914286 30.7302857 26.0065714 8.02542857 26.0065714 1.53171429 8.73342857 2.89885714 8.22 2.89885714 9.78771429 3.11314286 9.78771429 3.11314286 8.13857143 4.55571429 7.59685714 10.2625714 22.776 28.4777143 22.776 33.3077143 9.68057143 3.11314286 9.68057143 3.11314286 7.90971429 2.96828571 7.96457143 3.006 8.06485714"></polygon>
                        <polygon id="Shape" fill-rule="nonzero" points="37.2034286 8.75742857 39.1911429 4.23342857 47.2748571 4.41857143 47.3528571 0.973714286 36.9642857 0.736285714 34.0491429 7.37142857 37.2034286 8.75742857"></polygon>
                        <polygon id="Shape" fill-rule="nonzero" points="37.2034286 8.75742857 37.3011429 8.80028571 39.2605714 4.34228571 47.3794286 4.52742857 47.4625714 0.869142857 36.8948571 0.627428571 33.9077143 7.42628571 37.2582857 8.89885714 37.3011429 8.80028571 37.2034286 8.75742857 37.2462857 8.65971429 34.1897143 7.31657143 37.0337143 0.845142857 47.2431429 1.07828571 47.1694286 4.30885714 39.1217143 4.12457143 37.1057143 8.71457143 37.2034286 8.75742857"></polygon>
                        <path d="M11.8311429,32.2191429 L10.1082857,32.2191429 C10.1065714,33.0934286 9.39857143,33.8014286 8.52428571,33.8031429 C7.65085714,33.8014286 6.942,33.0934286 6.94028571,32.2191429 C6.942,31.3448571 7.65085714,30.6368571 8.52428571,30.6351429 C9.39857143,30.6368571 10.1065714,31.3448571 10.1082857,32.2191429 L13.554,32.2191429 C13.5522857,29.4411429 11.3022857,27.1911429 8.52428571,27.1902857 C5.74628571,27.1911429 3.49628571,29.4411429 3.49542857,32.2191429 C3.49628571,34.9971429 5.74628571,37.2471429 8.52428571,37.2488571 C11.3022857,37.2471429 13.5531429,34.9971429 13.554,32.2191429 L11.8311429,32.2191429 Z" id="Shape" fill-rule="nonzero"></path>
                        <path d="M11.8311429,32.2191429 L11.8311429,32.112 L10.002,32.112 L10.0011429,32.2191429 C9.99942857,33.0342857 9.33942857,33.6942857 8.52428571,33.696 C7.71,33.6942857 7.04914286,33.0342857 7.04742857,32.2191429 C7.04914286,31.4048571 7.71,30.744 8.52514286,30.7422857 C9.33942857,30.744 9.99942857,31.4048571 10.0011429,32.2191429 L10.0011429,32.3262857 L13.6611429,32.3262857 L13.6611429,32.2191429 C13.6594286,29.3811429 11.3614286,27.084 8.52428571,27.0831429 C5.68714286,27.084 3.38914286,29.382 3.38828571,32.2191429 C3.38914286,35.0562857 5.68714286,37.3542857 8.52428571,37.356 C11.3614286,37.3542857 13.6602857,35.0562857 13.6611429,32.2191429 L13.6611429,32.112 L11.8311429,32.112 L11.8311429,32.3262857 L13.554,32.3262857 L13.554,32.2191429 L13.4468571,32.2191429 C13.446,34.938 11.2431429,37.14 8.52428571,37.1417143 C5.80542857,37.14 3.60342857,34.938 3.60257143,32.2191429 C3.60342857,29.5002857 5.80542857,27.2982857 8.52428571,27.2974286 C11.2431429,27.2982857 13.4451429,29.5002857 13.4468571,32.2191429 L13.554,32.2191429 L13.554,32.112 L10.1082857,32.112 L10.1082857,32.2191429 L10.2154286,32.2191429 C10.2137143,31.2857143 9.45771429,30.5297143 8.52514286,30.528 C7.59085714,30.5297143 6.83571429,31.2857143 6.83314286,32.2191429 C6.83485714,33.1525714 7.59085714,33.9085714 8.52428571,33.9102857 C9.45771429,33.9085714 10.2137143,33.1525714 10.2154286,32.2191429 L10.1082857,32.2191429 L10.1082857,32.3262857 L11.8311429,32.3262857 L11.8311429,32.2191429 Z" id="Shape" fill-rule="nonzero"></path>
                        <path d="M33.3197143,32.2191429 L31.5968571,32.2191429 C31.5951429,33.0934286 30.8871429,33.8014286 30.0137143,33.8031429 C29.1394286,33.8014286 28.4305714,33.0934286 28.4288571,32.2191429 C28.4305714,31.3448571 29.1385714,30.6368571 30.0137143,30.6351429 C30.8871429,30.6368571 31.5951429,31.3448571 31.5968571,32.2191429 L35.0425714,32.2191429 C35.0408571,29.4411429 32.7908571,27.1911429 30.0137143,27.1902857 C27.2348571,27.1911429 24.9848571,29.4411429 24.9831429,32.2191429 C24.9848571,34.9971429 27.2348571,37.2471429 30.0137143,37.2488571 C32.7917143,37.2471429 35.0408571,34.9971429 35.0425714,32.2191429 L33.3197143,32.2191429 Z" id="Shape" fill-rule="nonzero"></path>
                        <path d="M33.3197143,32.2191429 L33.3197143,32.112 L31.4897143,32.112 L31.4897143,32.2191429 C31.488,33.0342857 30.8271429,33.6942857 30.0137143,33.696 C29.1985714,33.6942857 28.5377143,33.0342857 28.536,32.2191429 C28.5377143,31.4048571 29.1977143,30.744 30.0137143,30.7422857 C30.8271429,30.744 31.4888571,31.4048571 31.4897143,32.2191429 L31.4897143,32.3262857 L35.1497143,32.3262857 L35.1497143,32.2191429 C35.148,29.3811429 32.85,27.084 30.0137143,27.0831429 C27.1757143,27.084 24.8777143,29.3811429 24.876,32.2191429 C24.8777143,35.0562857 27.1757143,37.3542857 30.0137143,37.356 C32.8508571,37.3542857 35.148,35.0562857 35.1497143,32.2191429 L35.1497143,32.112 L33.3197143,32.112 L33.3197143,32.3262857 L35.0425714,32.3262857 L35.0425714,32.2191429 L34.9354286,32.2191429 C34.9337143,34.938 32.7325714,37.14 30.0137143,37.1417143 C27.294,37.14 25.092,34.938 25.0902857,32.2191429 C25.092,29.5002857 27.294,27.2982857 30.0137143,27.2974286 C32.7317143,27.2982857 34.9337143,29.5002857 34.9354286,32.2191429 L35.0425714,32.2191429 L35.0425714,32.112 L31.5968571,32.112 L31.5968571,32.2191429 L31.704,32.2191429 C31.7022857,31.2857143 30.9462857,30.5297143 30.0137143,30.528 C29.0794286,30.5297143 28.3234286,31.2857143 28.3217143,32.2191429 C28.3234286,33.1525714 29.0802857,33.9085714 30.0137143,33.9102857 C30.9462857,33.9085714 31.7022857,33.1525714 31.704,32.2191429 L31.5968571,32.2191429 L31.5968571,32.3262857 L33.3197143,32.3262857 L33.3197143,32.2191429 Z" id="Shape" fill-rule="nonzero"></path>
                    </g>
                </g>
            </g>
            <g id="icons/enterprise" transform="translate(384.000000, 0.000000)" fill="#DE3C3F">
                <g id="icon/industries/corporate">
                    <g id="Group-9" transform="translate(0.000000, 2.000000)">
                        <polygon id="Shape" fill-rule="nonzero" points="46.2304615 7.74830769 46.2304615 6.01753846 0.847384615 6.01753846 0.847384615 42.2187692 47.9612308 42.2187692 47.9612308 6.01753846 46.2304615 6.01753846 46.2304615 7.74830769 44.4996923 7.74830769 44.4996923 38.7572308 4.30892308 38.7572308 4.30892308 9.47907692 46.2304615 9.47907692"></polygon>
                        <path d="M0.847384615,15.024 L0.847384615,20.4803077 C0.848307692,24.4504615 4.06430769,27.6664615 8.03446154,27.6683077 L40.7741538,27.6683077 C44.7443077,27.6664615 47.9603077,24.4504615 47.9612308,20.4803077 L47.9612308,15.024 L44.4996923,15.024 L44.4996923,20.4803077 C44.4987692,21.5150769 44.0852308,22.4353846 43.4086154,23.1156923 C42.7292308,23.7923077 41.8089231,24.2058462 40.7741538,24.2067692 L8.03446154,24.2067692 C7.00061538,24.2058462 6.07938462,23.7923077 5.4,23.1156923 C4.72338462,22.4353846 4.30984615,21.5150769 4.30892308,20.4803077 L4.30892308,15.024 L0.847384615,15.024 Z" id="Shape" fill-rule="nonzero"></path>
                        <path d="M29.8606154,7.74830769 L29.8606154,6.01753846 L20.6787692,6.01753846 L20.6787692,3.21507692 L19.8710769,3.21507692 L19.8710769,4.02276923 C20.3178462,4.02092308 20.6769231,3.66184615 20.6787692,3.21507692 L19.8710769,3.21507692 L19.8710769,4.02276923 L28.9375385,4.02276923 L28.9375385,3.21507692 L28.1298462,3.21507692 C28.1307692,3.66184615 28.4907692,4.02092308 28.9375385,4.02276923 L28.9375385,3.21507692 L28.1298462,3.21507692 L28.1298462,7.74830769 L29.8606154,7.74830769 L31.5913846,7.74830769 L31.5913846,3.21507692 C31.5904615,1.74830769 30.4043077,0.562153846 28.9375385,0.561230769 L19.8710769,0.561230769 C18.4043077,0.562153846 17.2181538,1.74830769 17.2172308,3.21507692 L17.2172308,9.47907692 L31.5913846,9.47907692 L31.5913846,7.74830769 L29.8606154,7.74830769 Z" id="Shape" fill-rule="nonzero"></path>
                        <polyline id="Shape" fill-rule="nonzero" points="33.5870769 16.8424615 33.5870769 22.2996923 37.0486154 22.2996923 37.0486154 16.8424615"></polyline>
                        <polyline id="Shape" fill-rule="nonzero" points="11.76 16.8424615 11.76 22.2996923 15.2215385 22.2996923 15.2215385 16.8424615"></polyline>
                    </g>
                </g>
            </g>
            <g id="icons/mobile2" transform="translate(480.000000, 0.000000)" fill="#DE3C3F">
                <g id="icon/industries/mobile">
                    <g id="Group-24" transform="translate(14.000000, 0.000000)">
                        <polygon id="Shape" fill-rule="nonzero" points="1.17381818 45.7064727 2.34763636 45.7064727 2.34763636 11.0749091 18.3010909 11.0749091 18.3010909 44.5326545 1.17381818 44.5326545 1.17381818 45.7064727 1.17381818 46.8802909 20.6478545 46.8802909 20.6478545 8.72727273 0 8.72727273 0 46.8802909 1.17381818 46.8802909"></polygon>
                        <polygon id="Shape" fill-rule="nonzero" points="1.50109091 45.1610182 1.50109091 45.4882909 3.00218182 45.4882909 3.00218182 10.8567273 18.3010909 10.8567273 18.3010909 43.6599273 1.17381818 43.6599273 1.17381818 45.4882909 2.67490909 45.4882909 2.67490909 44.8337455 1.17381818 44.8337455 1.17381818 46.6621091 21.3024 46.6621091 21.3024 7.85454545 0 7.85454545 0 46.6621091 1.82836364 46.6621091 1.82836364 45.1610182 1.50109091 45.1610182 1.17381818 45.1610182 1.17381818 46.0075636 0.654545455 46.0075636 0.654545455 8.50909091 20.6478545 8.50909091 20.6478545 46.0075636 1.82836364 46.0075636 1.82836364 45.4882909 2.67490909 45.4882909 2.67490909 44.8337455 1.82836364 44.8337455 1.82836364 44.3144727 18.9556364 44.3144727 18.9556364 10.2021818 2.34763636 10.2021818 2.34763636 44.8337455 1.17381818 44.8337455 1.17381818 45.1610182"></polygon>
                        <polygon id="Shape" fill-rule="nonzero" points="1.34749091 45.8801455 1.34749091 46.0538182 2.69498182 46.0538182 2.69498182 11.4222545 18.3010909 11.4222545 18.3010909 44.5326545 1.17381818 44.5326545 1.17381818 46.0538182 2.52130909 46.0538182 2.52130909 45.7064727 1.17381818 45.7064727 1.17381818 47.2276364 20.9960727 47.2276364 20.9960727 8.72727273 0 8.72727273 0 47.2276364 1.52203636 47.2276364 1.52203636 45.8801455 1.34749091 45.8801455 1.17381818 45.8801455 1.17381818 46.8802909 0.347345455 46.8802909 0.347345455 9.07549091 20.6478545 9.07549091 20.6478545 46.8802909 1.52203636 46.8802909 1.52203636 46.0538182 2.52130909 46.0538182 2.52130909 45.7064727 1.52203636 45.7064727 1.52203636 44.8808727 18.6484364 44.8808727 18.6484364 11.0749091 2.34763636 11.0749091 2.34763636 45.7064727 1.17381818 45.7064727 1.17381818 45.8801455 1.34749091 45.8801455"></polygon>
                        <polyline id="Shape" fill-rule="nonzero" points="6.7104 9.57469091 6.7104 0 4.36363636 0 4.36363636 9.57469091"></polyline>
                        <polygon id="Shape" fill-rule="nonzero" points="6.49221818 9.90196364 6.49221818 0 3.49090909 0 3.49090909 9.90196364 4.14545455 9.90196364 4.14545455 0.654545455 5.83767273 0.654545455 5.83767273 9.90196364"></polygon>
                        <polygon id="Shape" fill-rule="nonzero" points="6.18589091 9.74836364 6.18589091 0 3.49090909 0 3.49090909 9.74836364 3.83825455 9.74836364 3.83825455 0.347345455 5.83767273 0.347345455 5.83767273 9.74836364"></polygon>
                        <polygon id="Shape" fill-rule="nonzero" points="6.51316364 10.0756364 6.84043636 10.0756364 6.84043636 0 3.49090909 0 3.49090909 10.4029091 4.4928 10.4029091 4.4928 1.00189091 5.83767273 1.00189091 5.83767273 10.4029091 6.84043636 10.4029091 6.84043636 10.0756364 6.51316364 10.0756364 6.51316364 9.74836364 6.49221818 9.74836364 6.49221818 0.347345455 3.83825455 0.347345455 3.83825455 9.74836364 3.81818182 9.74836364 3.81818182 10.0756364 4.14545455 10.0756364 4.14545455 0.654545455 6.18589091 0.654545455 6.18589091 10.0756364"></polygon>
                        <polygon id="Shape" fill-rule="nonzero" points="14.8939636 22.3828364 14.8939636 21.3285818 6.47214545 21.3285818 6.47214545 15.1985455 13.8397091 15.1985455 13.8397091 22.3828364 14.8939636 22.3828364 15.9482182 22.3828364 15.9482182 13.0909091 4.36363636 13.0909091 4.36363636 23.4370909 15.9482182 23.4370909 15.9482182 22.3828364"></polygon>
                        <polygon id="Shape" fill-rule="nonzero" points="15.2212364 22.7101091 15.5485091 22.7101091 15.5485091 21.3285818 7.12669091 21.3285818 7.12669091 15.8530909 13.8397091 15.8530909 13.8397091 23.0373818 15.5485091 23.0373818 15.5485091 21.6558545 14.8939636 21.6558545 14.8939636 23.0373818 16.6027636 23.0373818 16.6027636 13.0909091 4.36363636 13.0909091 4.36363636 24.0916364 16.6027636 24.0916364 16.6027636 22.3828364 15.2212364 22.3828364 15.2212364 22.7101091 15.2212364 23.0373818 15.9482182 23.0373818 15.9482182 23.4370909 5.01818182 23.4370909 5.01818182 13.7454545 15.9482182 13.7454545 15.9482182 22.3828364 15.5485091 22.3828364 15.5485091 21.6558545 14.8939636 21.6558545 14.8939636 22.3828364 14.4942545 22.3828364 14.4942545 15.1985455 6.47214545 15.1985455 6.47214545 21.9831273 14.8939636 21.9831273 14.8939636 23.0373818 15.2212364 23.0373818"></polygon>
                        <rect id="Rectangle-path" fill-rule="nonzero" x="4.36363636" y="27.9272727" width="2.34763636" height="2.34763636"></rect>
                        <polygon id="Shape" fill-rule="nonzero" points="7.03854545 30.6021818 7.03854545 30.2749091 5.01818182 30.2749091 5.01818182 28.5818182 6.71127273 28.5818182 6.71127273 30.6021818 7.03854545 30.6021818 7.36581818 30.6021818 7.36581818 27.9272727 4.36363636 27.9272727 4.36363636 30.9294545 7.36581818 30.9294545 7.36581818 30.6021818"></polygon>
                        <rect id="Rectangle-path" fill-rule="nonzero" x="8.72727273" y="27.9272727" width="2.34676364" height="2.34763636"></rect>
                        <polygon id="Shape" fill-rule="nonzero" points="11.4013091 30.6021818 11.4013091 30.2749091 9.38181818 30.2749091 9.38181818 28.5818182 11.0740364 28.5818182 11.0740364 30.6021818 11.4013091 30.6021818 11.7285818 30.6021818 11.7285818 27.9272727 8.72727273 27.9272727 8.72727273 30.9294545 11.7285818 30.9294545 11.7285818 30.6021818"></polygon>
                        <rect id="Rectangle-path" fill-rule="nonzero" x="13.9636364" y="27.9272727" width="2.34763636" height="2.34763636"></rect>
                        <polygon id="Shape" fill-rule="nonzero" points="15.7658182 30.6021818 15.7658182 30.2749091 13.7454545 30.2749091 13.7454545 28.5818182 15.4385455 28.5818182 15.4385455 30.6021818 15.7658182 30.6021818 16.0930909 30.6021818 16.0930909 27.9272727 13.0909091 27.9272727 13.0909091 30.9294545 16.0930909 30.9294545 16.0930909 30.6021818"></polygon>
                        <rect id="Rectangle-path" fill-rule="nonzero" x="4.36363636" y="33.1636364" width="2.34763636" height="2.34763636"></rect>
                        <polygon id="Shape" fill-rule="nonzero" points="7.03854545 35.8385455 7.03854545 35.5112727 5.01818182 35.5112727 5.01818182 33.8181818 6.71127273 33.8181818 6.71127273 35.8385455 7.03854545 35.8385455 7.36581818 35.8385455 7.36581818 33.1636364 4.36363636 33.1636364 4.36363636 36.1658182 7.36581818 36.1658182 7.36581818 35.8385455"></polygon>
                        <rect id="Rectangle-path" fill-rule="nonzero" x="8.72727273" y="33.1636364" width="2.34676364" height="2.34763636"></rect>
                        <polygon id="Shape" fill-rule="nonzero" points="11.4013091 35.8385455 11.4013091 35.5112727 9.38181818 35.5112727 9.38181818 33.8181818 11.0740364 33.8181818 11.0740364 35.8385455 11.4013091 35.8385455 11.7285818 35.8385455 11.7285818 33.1636364 8.72727273 33.1636364 8.72727273 36.1658182 11.7285818 36.1658182 11.7285818 35.8385455"></polygon>
                        <rect id="Rectangle-path" fill-rule="nonzero" x="13.9636364" y="33.1636364" width="2.34763636" height="2.34763636"></rect>
                        <polygon id="Shape" fill-rule="nonzero" points="15.7658182 35.8385455 15.7658182 35.5112727 13.7454545 35.5112727 13.7454545 33.8181818 15.4385455 33.8181818 15.4385455 35.8385455 15.7658182 35.8385455 16.0930909 35.8385455 16.0930909 33.1636364 13.0909091 33.1636364 13.0909091 36.1658182 16.0930909 36.1658182 16.0930909 35.8385455"></polygon>
                        <rect id="Rectangle-path" fill-rule="nonzero" x="4.36363636" y="38.4" width="2.34763636" height="2.34763636"></rect>
                        <polygon id="Shape" fill-rule="nonzero" points="7.03854545 40.2021818 7.03854545 39.8749091 5.01818182 39.8749091 5.01818182 38.1818182 6.71127273 38.1818182 6.71127273 40.2021818 7.03854545 40.2021818 7.36581818 40.2021818 7.36581818 37.5272727 4.36363636 37.5272727 4.36363636 40.5294545 7.36581818 40.5294545 7.36581818 40.2021818"></polygon>
                        <rect id="Rectangle-path" fill-rule="nonzero" x="8.72727273" y="38.4" width="2.34676364" height="2.34763636"></rect>
                        <polygon id="Shape" fill-rule="nonzero" points="11.4013091 40.2021818 11.4013091 39.8749091 9.38181818 39.8749091 9.38181818 38.1818182 11.0740364 38.1818182 11.0740364 40.2021818 11.4013091 40.2021818 11.7285818 40.2021818 11.7285818 37.5272727 8.72727273 37.5272727 8.72727273 40.5294545 11.7285818 40.5294545 11.7285818 40.2021818"></polygon>
                        <rect id="Rectangle-path" fill-rule="nonzero" x="13.9636364" y="38.4" width="2.34763636" height="2.34763636"></rect>
                        <polygon id="Shape" fill-rule="nonzero" points="15.7658182 40.2021818 15.7658182 39.8749091 13.7454545 39.8749091 13.7454545 38.1818182 15.4385455 38.1818182 15.4385455 40.2021818 15.7658182 40.2021818 16.0930909 40.2021818 16.0930909 37.5272727 13.0909091 37.5272727 13.0909091 40.5294545 16.0930909 40.5294545 16.0930909 40.2021818"></polygon>
                    </g>
                </g>
            </g>
            <g id="icons/gaming-animation" transform="translate(528.000000, 0.000000)" fill="#DE3C3F">
                <g id="icon/services/game">
                    <g id="Group-23">
                        <path d="M13.7957666,23.2254777 L13.7957666,24.677713 C14.059296,24.677713 14.3058843,24.6739483 14.5364725,24.6739483 C14.6720019,24.6739483 14.8009431,24.6758306 14.9251784,24.6786542 C17.3091784,24.7520659 19.669649,24.7360659 22.0037666,24.7530071 L22.0310607,24.7530071 C22.1167078,24.7530071 22.1703549,24.7511248 22.1929431,24.7511248 L22.2051784,24.7511248 L22.2098843,24.5741836 L22.197649,24.7511248 L22.2051784,24.7511248 L22.2098843,24.5741836 L22.197649,24.7511248 L22.2014137,24.7511248 L22.3425902,24.7558306 C22.469649,24.7548895 22.635296,24.7454777 22.8385902,24.6871248 C22.9891784,24.6447718 23.1595313,24.5694777 23.3157666,24.4612424 C23.5529431,24.3003012 23.7317666,24.0734777 23.8324725,23.8824189 C23.9360019,23.6875953 23.9811784,23.525713 24.0122372,23.3911248 L24.0150607,23.381713 L23.9265902,23.3553601 L24.0103549,23.3939483 L24.0150607,23.381713 L23.9265902,23.3553601 L24.0103549,23.3939483 L23.6348255,23.2179483 L23.8400019,23.5699483 L24.0103549,23.3939483 L23.6348255,23.2179483 L23.8400019,23.5699483 L23.6621196,23.2650071 L23.7468255,23.6094777 L23.8400019,23.5699483 L23.6621196,23.2650071 L23.7468255,23.6094777 L23.717649,23.4918306 L23.7317666,23.6123012 L23.7468255,23.6094777 L23.717649,23.4918306 L23.7317666,23.6123012 L23.7449431,23.6113601 L23.7524725,23.6113601 L23.7628255,23.2763012 L23.563296,23.5304189 L23.7534137,23.6113601 L23.7628255,23.2763012 L23.563296,23.5304189 L23.7854137,23.2480659 L23.4842372,23.445713 L23.563296,23.5304189 L23.7854137,23.2480659 L23.4842372,23.445713 L23.6254137,23.3534777 L23.4720019,23.4250071 L23.4842372,23.445713 L23.6254137,23.3534777 L23.4720019,23.4250071 L23.4880019,23.4174777 L23.4710607,23.4240659 L23.4720019,23.4250071 L23.4880019,23.4174777 L23.4710607,23.4240659 L23.4738843,23.4306542 L23.4729431,23.4278306 C23.4964725,23.5003012 23.5162372,23.5755953 23.573649,23.7186542 C23.6188255,23.8240659 23.6884725,23.9840659 23.8475313,24.1751248 C23.9642372,24.3163012 24.1374137,24.4603012 24.3143549,24.5525365 C24.5835313,24.6946542 24.805649,24.7247718 24.9402372,24.7398306 C25.0795313,24.7539483 25.1595313,24.7520659 25.2310607,24.7520659 L25.2790607,24.7520659 C25.6047078,24.7511248 25.9331784,24.7511248 26.2607078,24.7511248 C26.6804725,24.7511248 27.1021196,24.7511248 27.5247078,24.7511248 C28.6550607,24.7511248 29.7938843,24.7473601 30.9411784,24.7163012 C31.9811784,24.6890071 33.0051784,24.6570071 34.0103549,24.6570071 C34.523296,24.6570071 35.0324725,24.6654777 35.5369431,24.6861836 C37.2960019,24.7614777 38.7727078,25.1840659 40.0404725,25.9332424 C41.3063549,26.6852424 42.3849431,27.7751248 43.291296,29.2894777 C43.9200019,30.3445365 44.2795313,31.4805365 44.4037666,32.7323012 C44.4404725,33.1003012 44.4583549,33.4598306 44.4583549,33.8090071 C44.4574137,35.1520659 44.1995313,36.3520659 43.6950607,37.461713 C43.189649,38.5704189 42.4320019,39.5972424 41.3844725,40.5553601 C40.0894137,41.733713 38.5825902,42.4235953 36.8018843,42.6993601 C36.3209431,42.7727718 35.8494137,42.8085365 35.3844725,42.8085365 C34.0470607,42.8075953 32.7661196,42.5148895 31.4842372,41.9210071 C30.6927078,41.5548895 29.9388255,40.9995953 29.1491784,40.3454777 C28.8367078,40.0866542 28.5214137,39.8410071 28.2080019,39.6038306 L28.2080019,39.6047718 C27.163296,38.8113601 25.9209431,38.3360659 24.6061196,38.2400659 C24.3030607,38.2174777 23.9943549,38.2043012 23.6818843,38.2043012 C23.1275313,38.2043012 22.5590607,38.245713 21.9840019,38.3483012 C20.7821196,38.5610071 19.7938843,39.125713 18.9703549,39.7515953 C18.2127078,40.3294777 17.5962372,40.8904189 16.997649,41.2828895 C15.6517666,42.1713601 14.2343549,42.6598306 12.6305902,42.7765365 C12.3858843,42.7934777 12.1449431,42.8019483 11.9077666,42.8019483 C9.89082545,42.7953601 8.13929604,42.2071248 6.48564898,40.9591248 C5.5209431,40.2259483 4.76235486,39.3958306 4.19200192,38.4621836 C3.62259016,37.5275953 3.23764898,36.4866542 3.04659016,35.3035953 C2.95153134,34.7153601 2.90541369,34.1506542 2.90541369,33.6075953 C2.90729604,32.3125365 3.16235486,31.141713 3.6649431,30.0461836 C4.16847251,28.9506542 4.92611957,27.9238306 5.97176663,26.9581836 C7.25929604,25.7770071 8.76706075,25.0871248 10.5524725,24.7991248 C11.2037666,24.6946542 11.9040019,24.6720659 12.6569431,24.6720659 C13.0240019,24.6720659 13.4023549,24.6767718 13.7929431,24.677713 L13.7957666,24.677713 L13.7957666,23.2254777 L13.7985902,21.7723012 C13.429649,21.7723012 13.0494137,21.7666542 12.6569431,21.7666542 C11.8522372,21.7675953 10.9948255,21.7864189 10.0950607,21.9294777 C7.8249431,22.2871248 5.72235486,23.2320659 4.00282545,24.8226542 C2.71435486,26.0094777 1.70447251,27.3515953 1.0249431,28.8320659 C0.343531335,30.3115953 -0.000939253064,31.9228895 1.92340656e-06,33.6075953 C1.92340656e-06,34.3144189 0.0592960411,35.0344189 0.177884276,35.765713 C0.423531335,37.2960659 0.940237218,38.7134777 1.71200192,39.9755953 C2.48188428,41.2395953 3.50306075,42.3435953 4.72847251,43.2734777 C6.83576663,44.8828895 9.29411957,45.7148895 11.9077666,45.7083012 C12.2145902,45.7083012 12.523296,45.6970071 12.8348255,45.6753601 C14.923296,45.5304189 16.8715313,44.8555953 18.603296,43.7045365 C19.4494137,43.1398306 20.1091784,42.5308895 20.7265902,42.0668895 C21.3421196,41.6000659 21.8964725,41.3148895 22.4922372,41.2085365 C22.875296,41.1407718 23.2715313,41.109713 23.6818843,41.109713 C23.9134137,41.109713 24.1487078,41.1200659 24.3887078,41.1379483 C25.1680019,41.2000659 25.8230607,41.4494777 26.4574137,41.9238306 L26.4583549,41.9238306 C26.747296,42.1421836 27.0287078,42.3614777 27.2978843,42.5845365 C28.155296,43.2913601 29.1030607,44.0170071 30.2607078,44.5563012 C31.8889431,45.3139483 33.6131784,45.7158306 35.3844725,45.7148895 C35.9990607,45.7148895 36.6183549,45.6668895 37.2404725,45.5718306 C39.5209431,45.2273601 41.621649,44.2786542 43.3440019,42.7003012 C44.6428255,41.5144189 45.6583549,40.1638306 46.3397666,38.6654777 C47.0230607,37.1680659 47.3647078,35.5304189 47.3637666,33.8090071 C47.3637666,33.3610071 47.3411784,32.9073601 47.2960019,32.4480659 C47.1360019,30.8104189 46.6437666,29.2330071 45.7863549,27.8005365 C44.6738843,25.9332424 43.2414137,24.4508895 41.5209431,23.4334777 C39.8023549,22.4132424 37.8174137,21.8720659 35.6574137,21.7835953 C35.1040019,21.7600659 34.555296,21.7515953 34.0103549,21.7515953 C32.9440019,21.7515953 31.8945902,21.7845365 30.8640019,21.8118306 C29.7609431,21.8410071 28.6475313,21.845713 27.5247078,21.845713 C27.1049431,21.845713 26.683296,21.8447718 26.2607078,21.8447718 C25.9303549,21.8447718 25.6000019,21.845713 25.2668255,21.8466542 L25.1934137,21.8466542 L25.157649,22.8640659 L25.4550607,21.8946542 C25.2715313,21.8419483 25.1990607,21.8485365 25.1934137,21.8466542 L25.157649,22.8640659 L25.4550607,21.8946542 L25.0720019,23.1426542 L25.9331784,22.1638306 C25.7835313,22.0292424 25.5877666,21.9332424 25.4550607,21.8946542 L25.0720019,23.1426542 L25.9331784,22.1638306 L25.083296,23.1285365 L26.1760019,22.4490071 C26.1280019,22.3699483 26.0461196,22.2626542 25.9331784,22.1638306 L25.083296,23.1285365 L26.1760019,22.4490071 L25.3270607,22.9770071 L26.2710607,22.6381836 C26.2663549,22.6287718 26.2503549,22.5704189 26.1760019,22.4490071 L25.3270607,22.9770071 L26.2710607,22.6381836 L26.2569431,22.6438306 L26.2710607,22.6391248 L26.2710607,22.6381836 L26.2569431,22.6438306 L26.2710607,22.6391248 L26.2465902,22.5638306 L26.2465902,22.5619483 C26.0950607,22.0706542 25.7995313,21.5906542 25.3590607,21.2452424 C24.9223549,20.8979483 24.3651784,20.7191248 23.8390607,20.7068895 L23.7449431,20.7059483 C23.1981196,20.7021836 22.5910607,20.8593601 22.1007078,21.2461836 C21.605649,21.6292424 21.2978843,22.197713 21.1783549,22.7520659 L22.1035313,22.9600659 L21.2527078,22.5459483 C21.2009431,22.6532424 21.1858843,22.7200659 21.1783549,22.7520659 L22.1035313,22.9600659 L21.2527078,22.5459483 L22.3435313,23.077713 L21.4465902,22.261713 C21.3524725,22.3643012 21.291296,22.4668895 21.2527078,22.5459483 L22.3435313,23.077713 L21.4465902,22.261713 L22.3868255,23.1172424 L21.9755313,21.9134777 C21.7995313,21.9699483 21.5840019,22.1045365 21.4465902,22.261713 L22.3868255,23.1172424 L21.9755313,21.9134777 L22.3425902,22.9864189 L22.3425902,21.8504189 C22.2785902,21.8504189 22.1534137,21.8541836 21.9755313,21.9134777 L22.3425902,22.9864189 L22.3425902,22.6212424 L22.3934137,21.8513601 L22.3425902,21.8504189 L22.3425902,22.6212424 L22.3934137,21.8513601 L22.3971784,21.8523012 L22.1929431,21.8447718 C22.1082372,21.845713 22.053649,21.8475953 22.0310607,21.8466542 L22.0244725,21.8466542 C19.6630607,21.8306542 17.3261196,21.845713 15.0145902,21.7741836 C14.8498843,21.7694777 14.6908255,21.7685365 14.5364725,21.7685365 C14.2738843,21.7685365 14.027296,21.7723012 13.7957666,21.7723012 L13.7985902,21.7723012 L13.7957666,23.2254777 Z" id="Shape" fill-rule="nonzero"></path>
                        <path d="M10.92905,30.4125595 C10.92905,30.0962644 10.9340718,29.7789651 10.9270412,29.46267 C10.9220193,29.2598395 11.0124132,29.1764982 11.2102753,29.1775023 C11.8731635,29.1805147 12.5350474,29.1825229 13.1969313,29.1764982 C13.4249247,29.17449 13.495231,29.2819299 13.4932223,29.4948016 C13.4861916,30.0992767 13.4892048,30.7037518 13.4922179,31.3082269 C13.4942267,31.6907934 13.4962354,31.6948099 13.8678546,31.6978222 C14.4282965,31.7008345 14.9897427,31.695814 15.551189,31.6998304 C15.9439001,31.7018386 15.9499263,31.7058551 15.9529395,32.0723558 C15.9579614,32.6617692 15.9579614,33.2521868 15.9529395,33.8426044 C15.9509307,34.1880187 15.9449045,34.1930393 15.5803159,34.1960516 C15.0188697,34.2000681 14.4574234,34.1960516 13.8959771,34.1980598 C13.4620866,34.1980598 13.4610822,34.1990639 13.4600779,34.6509141 C13.4570647,35.1830932 13.4590735,35.7162764 13.4570647,36.2484555 C13.455056,36.6862481 13.4530472,36.6872522 12.9980648,36.6882563 C12.4788024,36.6892605 11.9615486,36.6892605 11.4432906,36.6882563 C10.9642031,36.6872522 10.9631987,36.6872522 10.9621944,36.2273692 C10.9601856,35.7082435 10.96119,35.1911261 10.9591812,34.6730046 C10.9581769,34.16392 10.9973475,34.1970557 10.5011857,34.1970557 C9.93973945,34.1970557 9.37829318,34.2010722 8.81684691,34.1960516 C8.48439841,34.1930393 8.47736777,34.1860105 8.47435465,33.8586701 C8.46933277,33.254195 8.46933277,32.6497199 8.47435465,32.0452448 C8.47736777,31.7108756 8.48439841,31.7038469 8.81282941,31.6998304 C9.40340259,31.6948099 9.99397576,31.7018386 10.5835446,31.6968181 C10.9180018,31.6938058 10.9220193,31.6887852 10.9260368,31.362449 C10.9310587,31.0451497 10.9280456,30.7288546 10.9280456,30.4125595 L10.92905,30.4125595 L10.92905,30.4125595 Z" id="Shape" fill-rule="nonzero"></path>
                        <path d="M33.1868287,36.2355385 C32.5204758,36.2421267 32.0018876,35.7320091 32.0000052,35.0675385 C31.9981229,34.4247149 32.5063582,33.8948326 33.1360052,33.8825973 C33.7957699,33.8694208 34.3416523,34.3908326 34.3463582,35.0374208 C34.3520052,35.7094208 33.849417,36.2298914 33.1868287,36.2355385" id="Shape" fill-rule="nonzero"></path>
                        <path d="M37.8826557,36.2324903 C37.2398322,36.2296667 36.6911263,35.6724903 36.7061852,35.0381373 C36.721244,34.4150785 37.2595969,33.8870785 37.8835969,33.8823726 C38.518891,33.8786079 39.0826557,34.4160197 39.0760675,35.0193138 C39.0675969,35.7204903 38.561244,36.2353138 37.8826557,36.2324903" id="Shape" fill-rule="nonzero"></path>
                        <path d="M33.1745934,31.5276775 C32.5091817,31.5305011 31.9981228,31.0203834 32.0000052,30.3549717 C32.0009464,29.6999128 32.5383581,29.1662658 33.1868287,29.1766187 C33.8155346,29.1869717 34.3435346,29.7196775 34.3463581,30.3465011 C34.3491817,31.0109717 33.8409464,31.524854 33.1745934,31.5276775" id="Shape" fill-rule="nonzero"></path>
                        <path d="M39.0392973,30.3558067 C39.0421208,31.0475714 38.5668267,31.5219243 37.8731797,31.5181596 C37.2162385,31.5143949 36.7192973,31.0296891 36.7061208,30.3783949 C36.6929444,29.7355714 37.2275326,29.1708655 37.8712973,29.1765126 C38.5244738,29.1821596 39.0797679,29.6941596 39.0392973,30.3558067" id="Shape" fill-rule="nonzero"></path>
                        <polyline id="Shape" fill-rule="nonzero" points="25.4936471 21.6941176 25.4936471 0 22.5882353 0 22.5882353 21.6941176"></polyline>
                        <polygon id="Shape" fill-rule="nonzero" points="25.7289412 21.8117647 25.7289412 0 22.5882353 0 22.5882353 21.8117647 22.8235294 21.8117647 22.8235294 0.235294118 25.4936471 0.235294118 25.4936471 21.8117647"></polygon>
                    </g>
                </g>
            </g>
            <g id="icon/play" transform="translate(340.000000, 4.000000)">
                <path d="M20,40 C8.954305,40 0,31.045695 0,20 C0,8.954305 8.954305,0 20,0 C31.045695,0 40,8.954305 40,20 C40,31.045695 31.045695,40 20,40 Z" id="Path-Copy" fill-opacity="0.5" fill="#1A2C40"></path>
                <g stroke-width="1">
                    <path d="M20,38.6666667 C30.3093153,38.6666667 38.6666667,30.3093153 38.6666667,20 C38.6666667,9.69068467 30.3093153,1.33333333 20,1.33333333 C9.69068467,1.33333333 1.33333333,9.69068467 1.33333333,20 C1.33333333,30.3093153 9.69068467,38.6666667 20,38.6666667 Z M20,40 C8.954305,40 0,31.045695 0,20 C0,8.954305 8.954305,0 20,0 C31.045695,0 40,8.954305 40,20 C40,31.045695 31.045695,40 20,40 Z" id="Oval" fill="#BD3335" fill-rule="nonzero"></path>
                    <path d="M27.2070951,20.1666667 L15.1666667,10.3838186 L15.1666667,29.9495147 L27.2070951,20.1666667 Z M14.1666667,31 L14.1666667,9.33333333 C14.1666667,8.91231618 14.6552057,8.67978602 14.981963,8.94527633 L28.3152963,19.7786097 C28.5615679,19.9787053 28.5615679,20.354628 28.3152963,20.5547237 L14.981963,31.388057 C14.6552057,31.6535473 14.1666667,31.4210172 14.1666667,31 Z" id="Triangle" fill="#CC373A" fill-rule="nonzero"></path>
                    <path d="M14.1666667,31 L14.1666667,9.33333333 C14.1666667,8.91231618 14.6552057,8.67978602 14.981963,8.94527633 L28.3152963,19.7786097 C28.5615679,19.9787053 28.5615679,20.354628 28.3152963,20.5547237 L14.981963,31.388057 C14.6552057,31.6535473 14.1666667,31.4210172 14.1666667,31 Z" id="Path" fill-opacity="0.5" fill="#CC373A"></path>
                </g>
            </g>
            <g id="icon-menu" transform="translate(8.000000, 8.000000)" fill="#EBF0F5">
                <g id="Group" transform="translate(4.000000, 7.000000)">
                    <path d="M2,2 L22,2 C22.5522847,2 23,1.55228475 23,1 C23,0.44771525 22.5522847,0 22,0 L2,0 C1.44771525,0 1,0.44771525 1,1 C1,1.55228475 1.44771525,2 2,2 Z" id="Path-32" fill-rule="nonzero"></path>
                    <path d="M2,18 L22,18 C22.5522847,18 23,17.5522847 23,17 C23,16.4477153 22.5522847,16 22,16 L2,16 C1.44771525,16 1,16.4477153 1,17 C1,17.5522847 1.44771525,18 2,18 Z" id="Path-32-Copy" fill-rule="nonzero"></path>
                    <path d="M4,10 L22,10 C22.5522847,10 23,9.55228475 23,9 C23,8.44771525 22.5522847,8 22,8 L4,8 C3.44771525,8 3,8.44771525 3,9 C3,9.55228475 3.44771525,10 4,10 Z" id="Path-32-Copy-2" fill-rule="nonzero"></path>
                </g>
            </g>
            <g id="icon/next-circle" transform="translate(53.000000, 5.000000)" fill-rule="nonzero" fill="#1A2C40">
                <path d="M33.2272727,18.5 C33.2272727,10.3664296 26.6335704,3.77272727 18.5,3.77272727 C10.3664296,3.77272727 3.77272727,10.3664296 3.77272727,18.5 C3.77272727,26.6335704 10.3664296,33.2272727 18.5,33.2272727 C26.6335704,33.2272727 33.2272727,26.6335704 33.2272727,18.5 Z M36.5,18.5 C36.5,28.4410478 28.4410478,36.5 18.5,36.5 C8.55895223,36.5 0.5,28.4410478 0.5,18.5 C0.5,8.55895223 8.55895223,0.5 18.5,0.5 C28.4410478,0.5 36.5,8.55895223 36.5,18.5 Z M14.7713487,24.5899018 L17.0856258,26.90396 L25.1618002,18.8270216 L17.0855711,10.7507925 L14.7714034,13.0649602 L20.5335744,18.8271311 L14.7713487,24.5899018 Z" id="Combined-Shape"></path>
            </g>
            <g id="icon/next-circle-red" transform="translate(149.000000, 5.000000)" fill-rule="nonzero" fill="#DE3C3F">
                <path d="M33.2272727,18.5 C33.2272727,10.3664296 26.6335704,3.77272727 18.5,3.77272727 C10.3664296,3.77272727 3.77272727,10.3664296 3.77272727,18.5 C3.77272727,26.6335704 10.3664296,33.2272727 18.5,33.2272727 C26.6335704,33.2272727 33.2272727,26.6335704 33.2272727,18.5 Z M36.5,18.5 C36.5,28.4410478 28.4410478,36.5 18.5,36.5 C8.55895223,36.5 0.5,28.4410478 0.5,18.5 C0.5,8.55895223 8.55895223,0.5 18.5,0.5 C28.4410478,0.5 36.5,8.55895223 36.5,18.5 Z M14.7713487,24.5899018 L17.0856258,26.90396 L25.1618002,18.8270216 L17.0855711,10.7507925 L14.7714034,13.0649602 L20.5335744,18.8271311 L14.7713487,24.5899018 Z" id="Combined-Shape"></path>
            </g>
            <g id="icon/prev-circle" transform="translate(102.000000, 6.000000)" fill-rule="nonzero" fill="#1A2C40">
                <path d="M3.77272727,18.5 C3.77272727,26.6335704 10.3664296,33.2272727 18.5,33.2272727 C26.6335704,33.2272727 33.2272727,26.6335704 33.2272727,18.5 C33.2272727,10.3664296 26.6335704,3.77272727 18.5,3.77272727 C10.3664296,3.77272727 3.77272727,10.3664296 3.77272727,18.5 Z M0.5,18.5 C0.5,8.55895223 8.55895223,0.5 18.5,0.5 C28.4410478,0.5 36.5,8.55895223 36.5,18.5 C36.5,28.4410478 28.4410478,36.5 18.5,36.5 C8.55895223,36.5 0.5,28.4410478 0.5,18.5 Z M22.2286513,24.5899018 L19.9143742,26.90396 L11.8381998,18.8270216 L19.9144289,10.7507925 L22.2285966,13.0649602 L16.4664256,18.8271311 L22.2286513,24.5899018 Z" id="Combined-Shape"></path>
            </g>
            <g id="icon/prev-circle-red" transform="translate(198.000000, 6.000000)" fill-rule="nonzero" fill="#DE3C3F">
                <path d="M3.77272727,18.5 C3.77272727,26.6335704 10.3664296,33.2272727 18.5,33.2272727 C26.6335704,33.2272727 33.2272727,26.6335704 33.2272727,18.5 C33.2272727,10.3664296 26.6335704,3.77272727 18.5,3.77272727 C10.3664296,3.77272727 3.77272727,10.3664296 3.77272727,18.5 Z M0.5,18.5 C0.5,8.55895223 8.55895223,0.5 18.5,0.5 C28.4410478,0.5 36.5,8.55895223 36.5,18.5 C36.5,28.4410478 28.4410478,36.5 18.5,36.5 C8.55895223,36.5 0.5,28.4410478 0.5,18.5 Z M22.2286513,24.5899018 L19.9143742,26.90396 L11.8381998,18.8270216 L19.9144289,10.7507925 L22.2285966,13.0649602 L16.4664256,18.8271311 L22.2286513,24.5899018 Z" id="Combined-Shape"></path>
            </g>
            <g id="icon/quote-start" transform="translate(246.000000, 6.000000)" fill-opacity="0.5" fill="#DE3C3F">
                <path d="M2.09439528,28.7086466 C0.698124779,26.8477351 0,24.4354785 0,21.4718045 C0,17.818904 0.942468451,14.4417448 2.82743363,11.3402256 C4.71239881,8.2387063 7.5747104,5.79198891 11.4144543,4 L15.8126844,8.03195489 C13.0899569,8.92794934 10.8210514,10.3408425 9.00589971,12.2706767 C7.19074805,14.2005109 6.03884217,16.3026202 5.55014749,18.5770677 L5.96902655,18.7838346 C6.59734827,18.301376 7.57472296,18.0601504 8.90117994,18.0601504 C10.367264,18.0601504 11.693701,18.6287537 12.880531,19.7659774 C14.0673609,20.9032012 14.660767,22.5056288 14.660767,24.5733083 C14.660767,26.4342198 13.9975484,28.0538778 12.6710914,29.4323308 C11.3446345,30.8107838 9.73894748,31.5 7.8539823,31.5 C5.41050892,31.5 3.49066578,30.5695582 2.09439528,28.7086466 Z M21.7817109,28.7086466 C20.3854404,26.8477351 19.6873156,24.4354785 19.6873156,21.4718045 C19.6873156,17.818904 20.6297841,14.4417448 22.5147493,11.3402256 C24.3997144,8.2387063 27.262026,5.79198891 31.1017699,4 L35.5,8.03195489 C32.7772725,8.92794934 30.508367,10.3408425 28.6932153,12.2706767 C26.8780637,14.2005109 25.7261578,16.3026202 25.2374631,18.5770677 L25.6563422,18.7838346 C26.2846639,18.301376 27.2620386,18.0601504 28.5884956,18.0601504 C30.0545796,18.0601504 31.3810167,18.6287537 32.5678466,19.7659774 C33.7546765,20.9032012 34.3480826,22.5056288 34.3480826,24.5733083 C34.3480826,26.4342198 33.6848641,28.0538778 32.3584071,29.4323308 C31.0319501,30.8107838 29.4262631,31.5 27.5412979,31.5 C25.0978246,31.5 23.1779814,30.5695582 21.7817109,28.7086466 Z" id="“"></path>
            </g>
            <g id="icon/quote-start" transform="translate(294.000000, 6.000000)" fill-opacity="0.5" fill="#DE3C3F">
                <path d="M2.09439528,28.7086466 C0.698124779,26.8477351 0,24.4354785 0,21.4718045 C0,17.818904 0.942468451,14.4417448 2.82743363,11.3402256 C4.71239881,8.2387063 7.5747104,5.79198891 11.4144543,4 L15.8126844,8.03195489 C13.0899569,8.92794934 10.8210514,10.3408425 9.00589971,12.2706767 C7.19074805,14.2005109 6.03884217,16.3026202 5.55014749,18.5770677 L5.96902655,18.7838346 C6.59734827,18.301376 7.57472296,18.0601504 8.90117994,18.0601504 C10.367264,18.0601504 11.693701,18.6287537 12.880531,19.7659774 C14.0673609,20.9032012 14.660767,22.5056288 14.660767,24.5733083 C14.660767,26.4342198 13.9975484,28.0538778 12.6710914,29.4323308 C11.3446345,30.8107838 9.73894748,31.5 7.8539823,31.5 C5.41050892,31.5 3.49066578,30.5695582 2.09439528,28.7086466 Z M21.7817109,28.7086466 C20.3854404,26.8477351 19.6873156,24.4354785 19.6873156,21.4718045 C19.6873156,17.818904 20.6297841,14.4417448 22.5147493,11.3402256 C24.3997144,8.2387063 27.262026,5.79198891 31.1017699,4 L35.5,8.03195489 C32.7772725,8.92794934 30.508367,10.3408425 28.6932153,12.2706767 C26.8780637,14.2005109 25.7261578,16.3026202 25.2374631,18.5770677 L25.6563422,18.7838346 C26.2846639,18.301376 27.2620386,18.0601504 28.5884956,18.0601504 C30.0545796,18.0601504 31.3810167,18.6287537 32.5678466,19.7659774 C33.7546765,20.9032012 34.3480826,22.5056288 34.3480826,24.5733083 C34.3480826,26.4342198 33.6848641,28.0538778 32.3584071,29.4323308 C31.0319501,30.8107838 29.4262631,31.5 27.5412979,31.5 C25.0978246,31.5 23.1779814,30.5695582 21.7817109,28.7086466 Z" id="“"></path>
            </g>
        </g>
    </g>
</svg>