<?xml version="1.0" encoding="UTF-8"?>
<svg width="540px" height="180px" viewBox="0 0 540 180" version="1.1" xmlns="http://www.w3.org/2000/svg" xmlns:xlink="http://www.w3.org/1999/xlink">
    <!-- Generator: Sketch 51.2 (57519) - http://www.bohemiancoding.com/sketch -->
    <title>services-bgs</title>
    <desc>Created with Sketch.</desc>
    <defs>
        <linearGradient x1="50%" y1="0%" x2="50%" y2="100%" id="linearGradient-1">
            <stop stop-color="#83ECCD" offset="0%"></stop>
            <stop stop-color="#7BB6FF" stop-opacity="0.1" offset="100%"></stop>
        </linearGradient>
        <linearGradient x1="52.5842922%" y1="3.12250226e-15%" x2="52.5842922%" y2="100%" id="linearGradient-2">
            <stop stop-color="#73BAEF" offset="0%"></stop>
            <stop stop-color="#D2A4FF" stop-opacity="0.1" offset="100%"></stop>
        </linearGradient>
        <linearGradient x1="50%" y1="0%" x2="50%" y2="100%" id="linearGradient-3">
            <stop stop-color="#FFCC94" offset="0%"></stop>
            <stop stop-color="#CDEA61" stop-opacity="0.1" offset="100%"></stop>
        </linearGradient>
    </defs>
    <g id="services-bgs" stroke="none" stroke-width="1" fill="none" fill-rule="evenodd">
        <rect id="Rectangle-27" fill-rule="nonzero" x="0" y="0" width="180" height="180"></rect>
        <rect id="Rectangle-27-Copy" fill-rule="nonzero" x="180" y="0" width="180" height="180"></rect>
        <rect id="Rectangle-27-Copy-2" fill-rule="nonzero" x="360" y="0" width="180" height="180"></rect>
        <path d="M34,58.6907499 C34.6052662,58.6907499 35.0802614,58.5608479 35.425,58.30104 C35.7697386,58.0412321 35.9421053,57.6748792 35.9421053,57.2019704 L35.9421053,54.9775588 C35.9421053,54.166024 36.0710513,53.5588416 36.3289474,53.1559934 C36.5868434,52.7531452 37.006576,52.459771 37.5881579,52.2758621 C38.1697397,52.0919531 38.9736791,52 40,52 L40,54.4433498 C39.5315766,54.4608649 39.2144745,54.5002734 39.0486842,54.5615764 C38.8828939,54.6228793 38.7500005,54.7177516 38.65,54.8461959 C38.5499995,54.9746403 38.5,55.1497891 38.5,55.3716475 L38.5,57.7449371 C38.5,58.404674 38.3513173,58.9111458 38.0539474,59.2643678 C37.7565775,59.6175898 37.2736876,59.8467428 36.6052632,59.9518336 L36.6052632,60.0569239 C37.2789507,60.1736915 37.7631564,60.4043041 38.0578947,60.7487685 C38.3526331,61.0932329 38.5,61.5807303 38.5,62.2112753 L38.5,64.6283525 C38.5,64.8560493 38.5552626,65.0341172 38.6657895,65.1625616 C38.7763163,65.2910059 38.9236833,65.3858782 39.1078947,65.4471812 C39.2921062,65.5084842 39.5894716,65.5478926 40,65.5654078 L40,68 C38.9631527,68 38.1552661,67.9065873 37.5763158,67.7197592 C36.9973655,67.532931 36.5802644,67.2366377 36.325,66.8308703 C36.0697356,66.4251029 35.9421053,65.8106226 35.9421053,64.9874111 L35.9421053,62.8155446 C35.9421053,62.3484742 35.7657912,61.983581 35.4131579,61.7208539 C35.0605246,61.4581268 34.5894766,61.3267652 34,61.3267652 L34,58.6907499 Z M122,98.5367906 C121.415017,98.5367906 120.945983,98.6681521 120.592885,98.9308792 C120.239787,99.1936063 120.063241,99.5584996 120.063241,100.02557 L120.063241,102.197436 C120.063241,103.01481 119.934125,103.62783 119.675889,104.036517 C119.417654,104.445203 118.998685,104.742956 118.418972,104.929785 C117.839259,105.116613 117.032943,105.210025 116,105.210025 L116,102.775433 C116.569173,102.75208 116.961791,102.665965 117.177866,102.517086 C117.39394,102.368207 117.501976,102.141974 117.501976,101.838378 L117.501976,99.4213007 C117.501976,98.7907557 117.649537,98.3032583 117.944664,97.9587939 C118.239791,97.6143294 118.724634,97.3837169 119.399209,97.2669493 L119.399209,97.161859 C118.729904,97.0567682 118.246378,96.8276152 117.948617,96.4743932 C117.650855,96.1211712 117.501976,95.6146994 117.501976,94.9549624 L117.501976,92.5816729 C117.501976,92.3539761 117.450593,92.1773677 117.347826,92.0518426 C117.245059,91.9263174 117.113308,91.8329047 116.952569,91.7716017 C116.791831,91.7102987 116.474311,91.6708903 116,91.6533751 L116,89.2100254 C117.032943,89.2100254 117.839259,89.3019785 118.418972,89.4858874 C118.998685,89.6697964 119.417654,89.9631706 119.675889,90.3660188 C119.934125,90.768867 120.063241,91.3760494 120.063241,92.1875842 L120.063241,94.4119958 C120.063241,94.8849046 120.234517,95.2512574 120.577075,95.5110653 C120.919633,95.7708732 121.393936,95.9007752 122,95.9007752 L122,98.5367906 Z M159,25.5367906 C158.415017,25.5367906 157.945983,25.6681521 157.592885,25.9308792 C157.239787,26.1936063 157.063241,26.5584996 157.063241,27.02557 L157.063241,29.1974364 C157.063241,30.0148096 156.934125,30.6278303 156.675889,31.0365169 C156.417654,31.4452035 155.998685,31.7429564 155.418972,31.9297845 C154.839259,32.1166127 154.032943,32.2100254 153,32.2100254 L153,29.7754332 C153.569173,29.7520796 153.961791,29.6659648 154.177866,29.5170861 C154.39394,29.3682074 154.501976,29.1419736 154.501976,28.8383779 L154.501976,26.4213007 C154.501976,25.7907557 154.649537,25.3032583 154.944664,24.9587939 C155.239791,24.6143294 155.724634,24.3837169 156.399209,24.2669493 L156.399209,24.161859 C155.729904,24.0567682 155.246378,23.8276152 154.948617,23.4743932 C154.650855,23.1211712 154.501976,22.6146994 154.501976,21.9549624 L154.501976,19.5816729 C154.501976,19.3539761 154.450593,19.1773677 154.347826,19.0518426 C154.245059,18.9263174 154.113308,18.8329047 153.952569,18.7716017 C153.791831,18.7102987 153.474311,18.6708903 153,18.6533751 L153,16.2100254 C154.032943,16.2100254 154.839259,16.3019785 155.418972,16.4858874 C155.998685,16.6697964 156.417654,16.9631706 156.675889,17.3660188 C156.934125,17.768867 157.063241,18.3760494 157.063241,19.1875842 L157.063241,21.4119958 C157.063241,21.8849046 157.234517,22.2512574 157.577075,22.5110653 C157.919633,22.7708732 158.393936,22.9007752 159,22.9007752 L159,25.5367906 Z M114,17.3267652 C113.415017,17.3267652 112.945983,17.4581268 112.592885,17.7208539 C112.239787,17.983581 112.063241,18.3484742 112.063241,18.8155446 L112.063241,20.9874111 C112.063241,21.8047842 111.934125,22.4178049 111.675889,22.8264915 C111.417654,23.2351781 110.998685,23.532931 110.418972,23.7197592 C109.839259,23.9065873 109.032943,24 108,24 L108,21.5654078 C108.569173,21.5420543 108.961791,21.4559394 109.177866,21.3070608 C109.39394,21.1581821 109.501976,20.9319482 109.501976,20.6283525 L109.501976,18.2112753 C109.501976,17.5807303 109.649537,17.0932329 109.944664,16.7487685 C110.239791,16.4043041 110.724634,16.1736915 111.399209,16.0569239 L111.399209,15.9518336 C110.729904,15.8467428 110.246378,15.6175898 109.948617,15.2643678 C109.650855,14.9111458 109.501976,14.404674 109.501976,13.7449371 L109.501976,11.3716475 C109.501976,11.1439507 109.450593,10.9673424 109.347826,10.8418172 C109.245059,10.716292 109.113308,10.6228793 108.952569,10.5615764 C108.791831,10.5002734 108.474311,10.4608649 108,10.4433498 L108,8 C109.032943,8 109.839259,8.0919531 110.418972,8.27586207 C110.998685,8.45977103 111.417654,8.75314522 111.675889,9.15599343 C111.934125,9.55884164 112.063241,10.166024 112.063241,10.9775588 L112.063241,13.2019704 C112.063241,13.6748792 112.234517,14.0412321 112.577075,14.30104 C112.919633,14.5608479 113.393936,14.6907499 114,14.6907499 L114,17.3267652 Z M57,141.210025 L52,141.210025 L52,125.210025 L57,125.210025 L57,127.41035 L55.1763527,127.41035 L55.1763527,139.009701 L57,139.009701 L57,141.210025 Z M105,60.7996751 L106.82,60.7996751 L106.82,49.2003249 L105,49.2003249 L105,47 L110,47 L110,63 L105,63 L105,60.7996751 Z M165,162.009701 L166.82,162.009701 L166.82,150.41035 L165,150.41035 L165,148.210025 L170,148.210025 L170,164.210025 L165,164.210025 L165,162.009701 Z M21.7111928,161.009701 L23.5311928,161.009701 L23.5311928,149.41035 L21.7111928,149.41035 L21.7111928,147.210025 L26.7111928,147.210025 L26.7111928,163.210025 L21.7111928,163.210025 L21.7111928,161.009701 Z M76.1614173,60.8984996 L73.1645669,56 L77.0102362,56 L78.5,58.8067079 L80.0244094,56 L83.8787402,56 L80.803937,60.8984996 L84,66 L80.1543307,66 L78.5,62.9638129 L76.8543307,66 L73,66 L76.1614173,60.8984996 Z M89,107 L92.6227018,107 L94.3109512,113 C94.3930193,113.313848 94.4487076,113.692305 94.4780176,114.135385 L94.5483613,114.135385 C94.5952574,113.710767 94.6656004,113.338463 94.7593925,113.018462 L96.4916067,107 L100,107 L96.0607514,118.123077 C95.5566188,119.538469 94.936721,120.538459 94.2010392,121.123077 C93.4653574,121.707695 92.5054682,122 91.3213429,122 C90.8641064,122 90.3951529,121.947693 89.9144684,121.843077 L89.9144684,119.009231 C90.2251548,119.083077 90.5798008,119.12 90.9784173,119.12 C91.2832416,119.12 91.5499589,119.058462 91.7785771,118.935385 C92.0071954,118.812307 92.2065006,118.638463 92.3764988,118.413846 C92.546497,118.18923 92.7282165,117.821541 92.9216627,117.310769 L89,107 Z M155,86.2100254 L158.622702,86.2100254 L160.310951,92.2100254 C160.393019,92.5238731 160.448708,92.9023309 160.478018,93.34541 L160.548361,93.34541 C160.595257,92.9207925 160.6656,92.5484885 160.759392,92.2284869 L162.491607,86.2100254 L166,86.2100254 L162.060751,97.3331023 C161.556619,98.748494 160.936721,99.748484 160.201039,100.333102 C159.465357,100.917721 158.505468,101.210025 157.321343,101.210025 C156.864106,101.210025 156.395153,101.157718 155.914468,101.053102 L155.914468,98.2192561 C156.225155,98.2931027 156.579801,98.3300254 156.978417,98.3300254 C157.283242,98.3300254 157.549959,98.2684875 157.778577,98.14541 C158.007195,98.0223325 158.206501,97.848488 158.376499,97.6238715 C158.546497,97.399255 158.728216,97.0315664 158.921663,96.5207946 L155,86.2100254 Z M13.3065452,100.789975 C14.4305497,100.789975 15.3221453,101.248938 15.9813587,102.166878 C16.6405722,103.084818 16.970174,104.35511 16.970174,105.977792 C16.970174,107.612318 16.6375344,108.892973 15.9722452,109.819797 C15.3069561,110.746621 14.3819446,111.210025 13.1971831,111.210025 C12.814414,111.210025 12.4741799,111.170051 12.1764706,111.090102 C11.8787613,111.010152 11.6129534,110.899112 11.3790389,110.75698 C11.1451245,110.614847 10.873241,110.377963 10.5633803,110.04632 L10.3446562,110.04632 L9.77961889,111.03236 L7,111.03236 L7,97.2100254 L10.5633803,97.2100254 L10.5633803,100.336929 C10.5633803,100.710027 10.520851,101.352576 10.4357912,102.264594 L10.5633803,102.264594 C10.9096952,101.743441 11.3091665,101.367387 11.7618061,101.136421 C12.2144458,100.905456 12.7293536,100.789975 13.3065452,100.789975 Z M11.4399337,104.210025 C10.9417263,104.210025 10.5771898,104.378805 10.3463132,104.716371 C10.1154366,105.053936 10,105.583964 10,106.306472 L10,106.795051 C10,107.618236 10.1154366,108.208966 10.3463132,108.567259 C10.5771898,108.925552 10.9538775,109.104695 11.4763877,109.104695 C11.895611,109.104695 12.2176183,108.895941 12.4424192,108.478426 C12.6672201,108.060912 12.7796189,107.446493 12.7796189,106.635152 C12.7796189,105.018393 12.3330616,104.210025 11.4399337,104.210025 Z M25.2336371,101.210025 C25.5434978,101.210025 25.8381649,101.233714 26.1176471,101.281091 L26.3181442,101.316624 L25.9991715,104.594543 C25.7075379,104.523477 25.3035099,104.487944 24.7870754,104.487944 C24.0093858,104.487944 23.4443542,104.661166 23.0919635,105.007614 C22.7395729,105.354063 22.5633803,105.853 22.5633803,106.504442 L22.5633803,111.452411 L19,111.452411 L19,101.38769 L21.6520298,101.38769 L22.2079536,102.995558 L22.3811102,102.995558 C22.6788195,102.462561 23.0934798,102.031728 23.6251036,101.703046 C24.1567273,101.374364 24.6928998,101.210025 25.2336371,101.210025 Z M32.4316487,111.630076 C30.7122256,111.630076 29.3771105,111.184438 28.4262635,110.293147 C27.4754164,109.401857 27,108.133045 27,106.486675 C27,104.787005 27.4404816,103.482661 28.3214582,102.573604 C29.2024347,101.664547 30.4600857,101.210025 32.094449,101.210025 C33.6498283,101.210025 34.8512799,101.605326 35.6988401,102.395939 C36.5464003,103.186552 36.970174,104.325077 36.970174,105.811548 L36.970174,107.357234 L30.5998343,107.357234 C30.6241371,107.919842 30.8352645,108.361039 31.2332229,108.680838 C31.6311812,109.000636 32.1734293,109.160533 32.8599834,109.160533 C33.4857805,109.160533 34.0614445,109.102792 34.5869925,108.98731 C35.1125406,108.871827 35.6821289,108.674917 36.2957746,108.396574 L36.2957746,110.892766 C35.7368102,111.17111 35.1596274,111.363578 34.5642088,111.470178 C33.9687902,111.576777 33.2579439,111.630076 32.4316487,111.630076 Z M32.5492958,103.210025 C32.1300725,103.210025 31.7792061,103.338831 31.496686,103.596447 C31.2141659,103.854062 31.0486056,104.258246 31,104.80901 L34.0621375,104.80901 C34.0499861,104.32339 33.9087282,103.935492 33.6383596,103.645305 C33.3679909,103.355117 33.0049733,103.210025 32.5492958,103.210025 Z M45.2908036,111.452411 L44.6072908,110.119924 L44.5343828,110.119924 C44.0544025,110.700299 43.5653159,111.09708 43.0671085,111.310279 C42.5689011,111.523478 41.9248866,111.630076 41.1350456,111.630076 C40.1629336,111.630076 39.3974068,111.345815 38.8384424,110.777284 C38.279478,110.208754 38,109.409269 38,108.378807 C38,107.30689 38.3827634,106.508886 39.1483016,105.984772 C39.9138398,105.460657 41.0226384,105.166032 42.4747307,105.100888 L44.1971831,105.047589 L44.1971831,104.905457 C44.1971831,104.076349 43.7779661,103.661802 42.9395195,103.661802 C42.1861327,103.661802 41.2292243,103.910531 40.0687655,104.407995 L39.0389395,102.116117 C40.2419281,101.512053 41.7608304,101.210025 43.5956918,101.210025 C44.9201944,101.210025 45.9454534,101.529819 46.6714996,102.169416 C47.3975457,102.809013 47.7605634,103.703251 47.7605634,104.852157 L47.7605634,111.452411 L45.2908036,111.452411 Z M43.011599,109.430838 C43.4429737,109.430838 43.812067,109.29759 44.1188898,109.031091 C44.4257127,108.764593 44.5791218,108.418149 44.5791218,107.991751 L44.5791218,107.210025 L43.7589064,107.245558 C42.5862963,107.287014 42,107.707483 42,108.50698 C42,109.122888 42.3371963,109.430838 43.011599,109.430838 Z M54.4540182,105.373731 C54.8853929,104.704523 55.2529673,104.183377 55.5567523,103.810279 L57.8715824,100.96764 L61.8450704,100.96764 L58.2634631,105.249365 L62.072908,111.03236 L57.9991715,111.03236 L55.7390224,107.425761 L54.5816073,108.287437 L54.5816073,111.03236 L51,111.03236 L51,97.2100254 L54.5816073,97.2100254 L54.5816073,102.646574 C54.5816073,103.576358 54.5147756,104.485402 54.3811102,105.373731 L54.4540182,105.373731 Z M15.7675654,22 C15.009664,22 14.3472931,21.7956873 13.780433,21.3870558 C13.2135729,20.9784244 12.7751241,20.3773305 12.4650735,19.5837563 C12.155023,18.7901822 12,17.8633725 12,16.8032995 C12,15.1687736 12.3476272,13.8895985 13.0428922,12.965736 C13.7381571,12.0418736 14.693349,11.5799492 15.9084967,11.5799492 C16.5035433,11.5799492 17.0249841,11.6924693 17.472835,11.9175127 C17.9206858,12.1425561 18.3293827,12.5215709 18.6989379,13.0545685 L18.7741013,13.0545685 C18.655092,12.2669165 18.5955882,11.4792764 18.5955882,10.6916244 L18.5955882,8 L22.2973856,8 L22.2973856,21.822335 L19.5257353,21.822335 L18.7365196,20.5520305 L18.5955882,20.5520305 C17.9629598,21.5173483 17.0202949,22 15.7675654,22 Z M16.5596405,19.8769036 C17.1484234,19.8769036 17.5633839,19.7022014 17.8045343,19.3527919 C18.0456848,19.0033823 18.1756535,18.4644706 18.1944444,17.7360406 L18.1944444,17.4606599 C18.1944444,16.5723306 18.059778,15.9401457 17.7904412,15.5640863 C17.5211043,15.1880269 17.0983144,15 16.5220588,15 C16.0397579,15 15.6655106,15.2146764 15.3993056,15.6440355 C15.1331005,16.0733947 15,16.6848522 15,17.4784264 C15,18.2601562 15.1346664,18.8553279 15.4040033,19.2639594 C15.6733401,19.6725909 16.0585487,19.8769036 16.5596405,19.8769036 Z M34.6262255,17.1878173 C34.6262255,18.8341876 34.1580248,20.1178042 33.2216095,21.0387056 C32.2851941,21.959607 30.9745455,22.4200508 29.2896242,22.4200508 C27.673603,22.4200508 26.3880086,21.9492433 25.4328023,21.0076142 C24.477596,20.0659851 24,18.7927322 24,17.1878173 C24,15.5473691 24.4682007,14.2726357 25.404616,13.3635787 C26.3410314,12.4545217 27.6548118,12 29.3459967,12 C30.3920259,12 31.3159001,12.2102348 32.1176471,12.6307107 C32.919394,13.0511865 33.5379199,13.6537609 33.9732435,14.4384518 C34.408567,15.2231427 34.6262255,16.1395887 34.6262255,17.1878173 Z M28,17.6027919 C28,18.4674324 28.1221393,19.1262668 28.3664216,19.5793147 C28.6107038,20.0323627 29.0209666,20.2588832 29.5972222,20.2588832 C30.1672142,20.2588832 30.5696475,20.0323627 30.8045343,19.5793147 C31.0394211,19.1262668 31.1568627,18.4674324 31.1568627,17.6027919 C31.1568627,16.7440735 31.0378552,16.0956029 30.7998366,15.6573604 C30.561818,15.2191179 30.154687,15 29.5784314,15 C29.0147031,15 28.6107038,15.2176374 28.3664216,15.6529188 C28.1221393,16.0882001 28,16.7381513 28,17.6027919 Z M76.6756426,170.772487 L75.5341843,165.738304 L75.266655,164.218726 L75.0883022,162.997471 L75.0347963,162.997471 C74.7434852,164.737691 74.547299,165.834635 74.4462319,166.288335 L73.4207029,170.772487 L69.7555517,170.772487 L67,160.210025 L70.4332925,160.210025 L71.2537157,164.265339 C71.5153012,165.657515 71.6668996,166.813501 71.7085155,167.733332 L71.7620213,167.733332 C71.7798567,167.161545 71.9433452,166.073924 72.2524917,164.470436 L73.1888442,160.210025 L77.041266,160.210025 L77.8973597,164.526371 C78.1708354,165.899902 78.3432415,166.968878 78.414583,167.733332 L78.4680888,167.733332 C78.5037596,167.260986 78.5632099,166.672117 78.6464417,165.966707 C78.7296734,165.261296 78.8218215,164.694179 78.9228886,164.265339 L79.8146529,160.210025 L83.1766043,160.210025 L80.4032173,170.772487 L76.6756426,170.772487 Z M91.3582794,170.71593 L91.3582794,164.954587 C91.3582794,163.537551 90.9569895,162.829043 90.1543976,162.829043 C89.5836656,162.829043 89.1630543,163.079196 88.8925511,163.57951 C88.622048,164.079823 88.4867984,164.911076 88.4867984,166.073294 L88.4867984,170.71593 L85,170.71593 L85,156.210025 L88.4867984,156.210025 L88.4867984,158.270311 C88.4867984,159.202572 88.4392381,160.265333 88.3441161,161.458627 L88.5046337,161.458627 C88.8375607,160.911701 89.2329056,160.526372 89.6906802,160.302629 C90.1484548,160.078887 90.6805355,159.967017 91.2869383,159.967017 C92.416512,159.967017 93.2948911,160.307287 93.9221018,160.987838 C94.5493125,161.668388 94.8629131,162.620833 94.8629131,163.845203 L94.8629131,170.71593 L91.3582794,170.71593 Z M100.486798,170.772487 L97,170.772487 L97,160.210025 L100.486798,160.210025 L100.486798,170.772487 Z M97,157.832151 C97,157.285225 97.1456534,156.878144 97.4369645,156.610895 C97.7282756,156.343647 98.1979335,156.210025 98.8459521,156.210025 C99.4939707,156.210025 99.9666011,156.346755 100.263857,156.620218 C100.561114,156.893681 100.709739,157.297655 100.709739,157.832151 C100.709739,158.901143 100.088483,159.435631 98.8459521,159.435631 C97.6153112,159.435631 97,158.901143 97,157.832151 Z M106.486798,170.71593 L103,170.71593 L103,156.210025 L106.486798,156.210025 L106.486798,170.71593 Z M113.314915,171.145389 C111.632445,171.145389 110.326023,170.677712 109.395611,169.742344 C108.465199,168.806975 108,167.475416 108,165.747626 C108,163.963901 108.431015,162.595052 109.293058,161.641038 C110.155101,160.687025 111.385724,160.210025 112.984962,160.210025 C114.506914,160.210025 115.682545,160.624875 116.51189,161.454587 C117.341235,162.284299 117.755901,163.479129 117.755901,165.039112 L117.755901,166.661237 L111.522469,166.661237 C111.546249,167.251669 111.752839,167.714685 112.142245,168.050299 C112.531651,168.385913 113.062245,168.553717 113.734044,168.553717 C114.346392,168.553717 114.909684,168.493121 115.423938,168.371927 C115.938191,168.250733 116.495538,168.044085 117.095996,167.751977 L117.095996,170.371616 C116.549044,170.663725 115.984266,170.865712 115.401644,170.977583 C114.819021,171.089454 114.123452,171.145389 113.314915,171.145389 Z M113.515999,163.210025 C113.105786,163.210025 112.76246,163.345201 112.486012,163.615557 C112.209563,163.885912 112.047561,164.310085 112,164.888086 L114.996328,164.888086 C114.984438,164.37845 114.846216,163.971369 114.581658,163.666831 C114.3171,163.362292 113.961884,163.210025 113.515999,163.210025 Z M64.1931669,31.4133585 L61.9763469,31.4133585 L61.9763469,38.8235665 L58.3797635,38.8235665 L58.3797635,31.4133585 L57,31.4133585 L57,29.7195967 L58.4533509,28.8727158 L58.4533509,28.705104 C58.4533509,27.3877271 58.7339,26.4408766 59.2950066,25.8645243 C59.8561132,25.2881719 60.7560166,25 61.9947438,25 C62.4730642,25 62.9253154,25.0352864 63.3515112,25.1058601 C63.7777069,25.1764339 64.2728837,25.2999361 64.8370565,25.4763705 L64.064389,27.7082546 C63.6228624,27.5906316 63.1905409,27.531821 62.7674113,27.531821 C62.4914572,27.531821 62.290627,27.6126856 62.1649146,27.7744171 C62.0392022,27.9361487 61.9763469,28.199326 61.9763469,28.5639572 L61.9763469,28.8286074 L64.1931669,28.8286074 L64.1931669,31.4133585 Z M75.4034166,33.1518589 C75.4034166,34.7868177 74.9450331,36.0615371 74.0282523,36.9760555 C73.1114715,37.8905738 71.8283043,38.3478261 70.1787122,38.3478261 C68.5965755,38.3478261 67.3379372,37.8802819 66.4027595,36.9451796 C65.4675818,36.0100772 65,34.7456496 65,33.1518589 C65,31.5227812 65.4583835,30.2568833 66.3751643,29.3541273 C67.291945,28.4513712 68.5781783,28 70.2339028,28 C71.257999,28 72.1625016,28.2087776 72.9474376,28.626339 C73.7323736,29.0439004 74.3379304,29.6422981 74.7641261,30.4215501 C75.1903219,31.200802 75.4034166,32.1108959 75.4034166,33.1518589 Z M69,33.5847511 C69,34.4433985 69.1195783,35.0976663 69.3587385,35.547574 C69.5978987,35.9974818 69.9995592,36.2224323 70.5637319,36.2224323 C71.1217724,36.2224323 71.5157676,35.9974818 71.7457293,35.547574 C71.975691,35.0976663 72.0906702,34.4433985 72.0906702,33.5847511 C72.0906702,32.7319848 71.974158,32.0880089 71.7411301,31.652804 C71.5081022,31.2175992 71.1095079,31 70.5453351,31 C69.9934269,31 69.5978987,31.2161289 69.3587385,31.6483932 C69.1195783,32.0806575 69,32.7261037 69,33.5847511 Z M84.2917214,28 C84.6044694,28 84.9018821,28.0235242 85.1839685,28.0705734 L85.3863338,28.1058601 L85.064389,31.3610586 C84.770038,31.2904848 84.3622453,31.2551985 83.8409987,31.2551985 C83.0560627,31.2551985 82.4857661,31.4272195 82.130092,31.7712665 C81.7744178,32.1153136 81.5965834,32.6107928 81.5965834,33.257719 L81.5965834,38.1713926 L78,38.1713926 L78,28.1764335 L80.6767411,28.1764335 L81.2378449,29.7731569 L81.412615,29.7731569 C81.7130983,29.2438537 82.1316224,28.8160067 82.6681997,28.489603 C83.2047771,28.1631994 83.7459456,28 84.2917214,28 Z M131.630223,66.2100254 L128.090529,66.2100254 L128.090529,56.2276465 L131.630223,56.2276465 L131.630223,66.2100254 Z M128,53.743065 C128,53.2261755 128.147863,52.841451 128.443593,52.58888 C128.739324,52.336309 129.216106,52.2100254 129.873955,52.2100254 C130.531805,52.2100254 131.011605,52.3392458 131.31337,52.5976906 C131.615136,52.8561353 131.766017,53.237923 131.766017,53.743065 C131.766017,54.7533491 131.135336,55.2584835 129.873955,55.2584835 C128.624646,55.2584835 128,54.7533491 128,53.743065 Z M140.366295,58.8091443 L138.18454,58.8091443 L138.18454,66.2100254 L134.644847,66.2100254 L134.644847,58.8091443 L133.286908,58.8091443 L133.286908,57.1175144 L134.71727,56.2716994 L134.71727,56.1042985 C134.71727,54.7885797 134.993382,53.8429211 135.545613,53.2672941 C136.097844,52.6916671 136.983513,52.403858 138.202646,52.403858 C138.673401,52.403858 139.118498,52.4390999 139.537953,52.5095849 C139.957407,52.5800698 140.444751,52.7034166 141,52.8796289 L140.239554,55.1087038 C139.805012,54.9912289 139.379529,54.9324923 138.963092,54.9324923 C138.691503,54.9324923 138.493849,55.0132551 138.370125,55.1747831 C138.246401,55.3363111 138.18454,55.5991572 138.18454,55.9633293 L138.18454,56.2276465 L140.366295,56.2276465 L140.366295,58.8091443 Z M5.63022284,66.2100254 L2.09052925,66.2100254 L2.09052925,56.2276465 L5.63022284,56.2276465 L5.63022284,66.2100254 Z M2,53.743065 C2,53.2261755 2.14786296,52.841451 2.44359331,52.58888 C2.73932367,52.336309 3.21610627,52.2100254 3.87395543,52.2100254 C4.53180459,52.2100254 5.01160481,52.3392458 5.31337047,52.5976906 C5.61513614,52.8561353 5.76601671,53.237923 5.76601671,53.743065 C5.76601671,54.7533491 5.13533593,55.2584835 3.87395543,55.2584835 C2.62464556,55.2584835 2,54.7533491 2,53.743065 Z M14.3662953,58.8091443 L12.1845404,58.8091443 L12.1845404,66.2100254 L8.6448468,66.2100254 L8.6448468,58.8091443 L7.28690808,58.8091443 L7.28690808,57.1175144 L8.71727019,56.2716994 L8.71727019,56.1042985 C8.71727019,54.7885797 8.99338164,53.8429211 9.54561281,53.2672941 C10.097844,52.6916671 10.9835129,52.403858 12.2026462,52.403858 C12.6734007,52.403858 13.1184984,52.4390999 13.5379526,52.5095849 C13.9574069,52.5800698 14.4447512,52.7034166 15,52.8796289 L14.2395543,55.1087038 C13.8050118,54.9912289 13.3795285,54.9324923 12.9630919,54.9324923 C12.6915028,54.9324923 12.4938493,55.0132551 12.3701253,55.1747831 C12.2464014,55.3363111 12.1845404,55.5991572 12.1845404,55.9633293 L12.1845404,56.2276465 L14.3662953,56.2276465 L14.3662953,58.8091443 Z M146.505105,131.210025 C144.762428,131.210025 143.409258,130.764387 142.445552,129.873096 C141.481846,128.981806 141,127.712995 141,126.066624 C141,124.366954 141.446439,123.06261 142.339329,122.153553 C143.23222,121.244496 144.506879,120.789975 146.163345,120.789975 C147.739758,120.789975 148.957458,121.185275 149.81648,121.975888 C150.675503,122.766501 151.105007,123.905026 151.105007,125.391497 L151.105007,126.937183 L144.648517,126.937183 C144.673149,127.499791 144.887131,127.940988 145.290472,128.260787 C145.693812,128.580585 146.243393,128.740482 146.939232,128.740482 C147.573492,128.740482 148.156941,128.682742 148.689596,128.567259 C149.222252,128.451776 149.799543,128.254866 150.421488,127.976523 L150.421488,130.472716 C149.854964,130.751059 149.269975,130.943527 148.666505,131.050127 C148.063034,131.156726 147.342574,131.210025 146.505105,131.210025 Z M146.292659,123.152919 C145.867766,123.152919 145.512155,123.281725 145.225814,123.53934 C144.939474,123.796956 144.771674,124.201139 144.722411,124.751904 L147.82596,124.751904 C147.813644,124.266284 147.670476,123.878386 147.396451,123.588198 C147.122426,123.29801 146.754499,123.152919 146.292659,123.152919 Z M156.7579,131.03236 L153.14633,131.03236 L153.14633,117.210025 L156.7579,117.210025 L156.7579,131.03236 Z M167.343218,127.94099 C167.343218,129.018829 166.961436,129.833119 166.197861,130.383883 C165.434286,130.934647 164.338202,131.210025 162.909577,131.210025 C162.133686,131.210025 161.45941,131.170051 160.886728,131.090102 C160.314047,131.010152 159.729058,130.86358 159.131745,130.650381 L159.131745,127.869924 C159.692111,128.106812 160.306349,128.302241 160.974477,128.456218 C161.642606,128.610195 162.23837,128.687183 162.761789,128.687183 C163.543838,128.687183 163.934857,128.515442 163.934857,128.171954 C163.934857,127.994288 163.825556,127.835872 163.606952,127.696701 C163.388348,127.557529 162.752558,127.286593 161.699562,126.883883 C160.738935,126.504863 160.067738,126.074029 159.68595,125.591371 C159.304163,125.108712 159.113272,124.497254 159.113272,123.75698 C159.113272,122.821273 159.488896,122.092854 160.240156,121.571701 C160.991415,121.050547 162.053631,120.789975 163.426835,120.789975 C164.116516,120.789975 164.764622,120.86252 165.371172,121.007614 C165.977721,121.152708 166.607354,121.364423 167.260088,121.642766 L166.280992,123.881345 C165.800678,123.674068 165.292662,123.497886 164.756928,123.352792 C164.221193,123.207698 163.783991,123.135152 163.445309,123.135152 C162.854154,123.135152 162.55858,123.274322 162.55858,123.552665 C162.55858,123.724409 162.661723,123.870981 162.868012,123.992386 C163.0743,124.113791 163.670065,124.361039 164.655323,124.734137 C165.388109,125.024325 165.934612,125.308586 166.294847,125.586929 C166.655082,125.865272 166.919866,126.192469 167.089208,126.568528 C167.258549,126.944587 167.343218,127.40207 167.343218,127.94099 Z M174.400097,131.210025 C172.657421,131.210025 171.30425,130.764387 170.340544,129.873096 C169.376838,128.981806 168.894993,127.712995 168.894993,126.066624 C168.894993,124.366954 169.341431,123.06261 170.234322,122.153553 C171.127212,121.244496 172.401871,120.789975 174.058337,120.789975 C175.634751,120.789975 176.852451,121.185275 177.711473,121.975888 C178.570495,122.766501 179,123.905026 179,125.391497 L179,126.937183 L172.54351,126.937183 C172.568141,127.499791 172.782124,127.940988 173.185464,128.260787 C173.588804,128.580585 174.138386,128.740482 174.834225,128.740482 C175.468485,128.740482 176.051934,128.682742 176.584589,128.567259 C177.117245,128.451776 177.694536,128.254866 178.31648,127.976523 L178.31648,130.472716 C177.749957,130.751059 177.164968,130.943527 176.561497,131.050127 C175.958026,131.156726 175.237567,131.210025 174.400097,131.210025 Z M174.187652,123.152919 C173.762759,123.152919 173.407148,123.281725 173.120807,123.53934 C172.834466,123.796956 172.666667,124.201139 172.617404,124.751904 L175.720953,124.751904 C175.708637,124.266284 175.565469,123.878386 175.291444,123.588198 C175.017419,123.29801 174.649492,123.152919 174.187652,123.152919 Z" id="Combined-Shape" fill="url(#linearGradient-1)" opacity="0.201060268"></path>
        <path d="M220,74 L233,74 L233,87 L220,87 L220,74 Z M269.5,106 C274.746705,106 279,101.746705 279,96.5 C279,91.2532949 274.746705,87 269.5,87 C264.253295,87 260,91.2532949 260,96.5 C260,101.746705 264.253295,106 269.5,106 Z M196.5,121 C200.089851,121 203,118.089851 203,114.5 C203,110.910149 200.089851,108 196.5,108 C192.910149,108 190,110.910149 190,114.5 C190,118.089851 192.910149,121 196.5,121 Z M239,135 L239,150.5 L255.5,150.5 L255.5,143.25 L246.5,143.25 L246.5,135 L239,135 Z M228.5,25.5 L228.5,10 L212,10 L212,17.25 L221,17.25 L221,25.5 L228.5,25.5 Z M341,45.5 L356.5,45.5 L356.5,29 L349.25,29 L349.25,38 L341,38 L341,45.5 Z M342.5,106 L350,121 L335,121 L342.5,106 Z M317.5,10 L325,25 L310,25 L317.5,10 Z M197.5,156 L205,171 L190,171 L197.5,156 Z M276,55.5 L291,48 L291,63 L276,55.5 Z M314,128 L320,128 L320,147 L314,147 L314,128 Z M276,23 L276,29 L263,29 L263,23 L276,23 Z M184,37 L190,37 L190,56 L184,56 L184,37 Z M287.5,160 C289.985281,160 292,157.985281 292,155.5 C292,153.014719 289.985281,151 287.5,151 C285.014719,151 283,153.014719 283,155.5 C283,157.985281 285.014719,160 287.5,160 Z M287.5,164 C282.80558,164 279,160.19442 279,155.5 C279,150.80558 282.80558,147 287.5,147 C292.19442,147 296,150.80558 296,155.5 C296,160.19442 292.19442,164 287.5,164 Z M348.5,168 C346.014719,168 344,165.985281 344,163.5 C344,161.014719 346.014719,159 348.5,159 C350.985281,159 353,161.014719 353,163.5 C353,165.985281 350.985281,168 348.5,168 Z M327.5,74 L334.632924,79.1823725 L331.908389,87.5676275 L323.091611,87.5676275 L320.367076,79.1823725 L327.5,74 Z" id="Combined-Shape" fill="url(#linearGradient-2)" fill-rule="nonzero" opacity="0.201060268"></path>
        <path d="M437.599607,117.736489 C444.547592,117.999239 450.099607,123.714774 450.099607,130.727051 C450.099607,130.894476 450.096442,131.061161 450.090168,131.227051 L437.599607,131.227051 L437.599607,117.736489 Z M437.099607,149.227051 C426.882339,149.227051 418.599607,140.944319 418.599607,130.727051 C418.599607,120.509783 426.882339,112.227051 437.099607,112.227051 C447.316874,112.227051 455.599607,120.509783 455.599607,130.727051 C455.599607,140.944319 447.316874,149.227051 437.099607,149.227051 Z M437.099607,145.227051 C445.107735,145.227051 451.599607,138.73518 451.599607,130.727051 C451.599607,122.718922 445.107735,116.227051 437.099607,116.227051 C429.091478,116.227051 422.599607,122.718922 422.599607,130.727051 C422.599607,138.73518 429.091478,145.227051 437.099607,145.227051 Z M434.099607,108.227051 L441.099607,108.227051 C441.928034,108.227051 442.599607,108.898624 442.599607,109.727051 L442.599607,110.227051 C442.599607,110.779336 442.151891,111.227051 441.599607,111.227051 L433.599607,111.227051 C433.047322,111.227051 432.599607,110.779336 432.599607,110.227051 L432.599607,109.727051 C432.599607,108.898624 433.271179,108.227051 434.099607,108.227051 Z M436.599607,111.227051 L438.599607,111.227051 L438.599607,113.227051 L436.599607,113.227051 L436.599607,111.227051 Z M508.599607,136.227051 C509.704176,136.227051 510.599607,135.33162 510.599607,134.227051 C510.599607,133.122481 509.704176,132.227051 508.599607,132.227051 C507.495037,132.227051 506.599607,133.122481 506.599607,134.227051 C506.599607,135.33162 507.495037,136.227051 508.599607,136.227051 Z M478.599607,66.2270508 L477.599607,66.2270508 C477.047322,66.2270508 476.599607,65.7793355 476.599607,65.2270508 C476.599607,64.674766 477.047322,64.2270508 477.599607,64.2270508 L478.599607,64.2270508 L478.599607,60.2270508 L477.599607,60.2270508 C477.047322,60.2270508 476.599607,59.7793355 476.599607,59.2270508 C476.599607,58.674766 477.047322,58.2270508 477.599607,58.2270508 L478.599607,58.2270508 L478.599607,54.2270508 L477.599607,54.2270508 C477.047322,54.2270508 476.599607,53.7793355 476.599607,53.2270508 C476.599607,52.674766 477.047322,52.2270508 477.599607,52.2270508 L478.599607,52.2270508 L478.599607,48.2270508 L477.599607,48.2270508 C477.047322,48.2270508 476.599607,47.7793355 476.599607,47.2270508 C476.599607,46.674766 477.047322,46.2270508 477.599607,46.2270508 L478.599607,46.2270508 L478.599607,42.2270508 L477.599607,42.2270508 C477.047322,42.2270508 476.599607,41.7793355 476.599607,41.2270508 L476.599607,38.2270508 C476.599607,37.674766 477.047322,37.2270508 477.599607,37.2270508 L483.599607,37.2270508 C484.151891,37.2270508 484.599607,37.674766 484.599607,38.2270508 L484.599607,74.2270508 C484.599607,74.7793355 484.151891,75.2270508 483.599607,75.2270508 L477.599607,75.2270508 C477.047322,75.2270508 476.599607,74.7793355 476.599607,74.2270508 L476.599607,71.2270508 C476.599607,70.674766 477.047322,70.2270508 477.599607,70.2270508 L478.599607,70.2270508 L478.599607,66.2270508 Z M380.194586,136.414732 L392.230887,120.442021 C392.56326,120.000947 393.190263,119.912828 393.631337,120.245201 L395.228608,121.448831 C395.669682,121.781204 395.757802,122.408207 395.425429,122.849282 L381.583683,141.217898 C381.25131,141.658973 380.624307,141.747092 380.183233,141.414719 L371.398242,134.794754 C370.957168,134.46238 370.869048,133.835377 371.201422,133.394303 L372.405052,131.797032 C372.737425,131.355958 373.364428,131.267838 373.805502,131.600212 L380.194586,136.414732 Z M446.194586,93.4147317 L458.230887,77.4420215 C458.56326,77.0009473 459.190263,76.9128278 459.631337,77.245201 L461.228608,78.4488311 C461.669682,78.7812043 461.757802,79.4082074 461.425429,79.8492816 L447.583683,98.2178983 C447.25131,98.6589725 446.624307,98.7470921 446.183233,98.4147188 L437.398242,91.7947536 C436.957168,91.4623803 436.869048,90.8353772 437.201422,90.394303 L438.405052,88.797032 C438.737425,88.3559578 439.364428,88.2678383 439.805502,88.6002115 L446.194586,93.4147317 Z M520.570169,99.3691864 L526.227024,93.7123322 C527.008072,92.9312836 528.274402,92.9312836 529.055451,93.7123322 C529.836499,94.4933807 529.836499,95.7597107 529.055451,96.5407593 L523.398596,102.197614 L529.055451,107.854468 C529.836499,108.635516 529.836499,109.901846 529.055451,110.682895 C528.274402,111.463943 527.008072,111.463943 526.227024,110.682895 L520.570169,105.026041 L514.913315,110.682895 C514.132266,111.463943 512.865937,111.463943 512.084888,110.682895 C511.303839,109.901846 511.303839,108.635516 512.084888,107.854468 L517.741742,102.197614 L512.084888,96.5407593 C511.303839,95.7597107 511.303839,94.4933807 512.084888,93.7123322 C512.865937,92.9312836 514.132266,92.9312836 514.913315,93.7123322 L520.570169,99.3691864 Z M398.570169,161.369186 L404.227024,155.712332 C405.008072,154.931284 406.274402,154.931284 407.055451,155.712332 C407.836499,156.493381 407.836499,157.759711 407.055451,158.540759 L401.398596,164.197614 L407.055451,169.854468 C407.836499,170.635516 407.836499,171.901846 407.055451,172.682895 C406.274402,173.463943 405.008072,173.463943 404.227024,172.682895 L398.570169,167.026041 L392.913315,172.682895 C392.132266,173.463943 390.865937,173.463943 390.084888,172.682895 C389.303839,171.901846 389.303839,170.635516 390.084888,169.854468 L395.741742,164.197614 L390.084888,158.540759 C389.303839,157.759711 389.303839,156.493381 390.084888,155.712332 C390.865937,154.931284 392.132266,154.931284 392.913315,155.712332 L398.570169,161.369186 Z M416.570169,13.4280609 L422.227024,7.77120666 C423.008072,6.99015808 424.274402,6.99015808 425.055451,7.77120666 C425.836499,8.55225524 425.836499,9.8185852 425.055451,10.5996338 L419.398596,16.256488 L425.055451,21.9133423 C425.836499,22.6943909 425.836499,23.9607208 425.055451,24.7417694 C424.274402,25.522818 423.008072,25.522818 422.227024,24.7417694 L416.570169,19.0849152 L410.913315,24.7417694 C410.132266,25.522818 408.865937,25.522818 408.084888,24.7417694 C407.303839,23.9607208 407.303839,22.6943909 408.084888,21.9133423 L413.741742,16.256488 L408.084888,10.5996338 C407.303839,9.8185852 407.303839,8.55225524 408.084888,7.77120666 C408.865937,6.99015808 410.132266,6.99015808 410.913315,7.77120666 L416.570169,13.4280609 Z M390.599607,78.2270508 C391.704176,78.2270508 392.599607,77.3316203 392.599607,76.2270508 C392.599607,75.1224813 391.704176,74.2270508 390.599607,74.2270508 C389.495037,74.2270508 388.599607,75.1224813 388.599607,76.2270508 C388.599607,77.3316203 389.495037,78.2270508 390.599607,78.2270508 Z M390.599607,86.2270508 C391.704176,86.2270508 392.599607,85.3316203 392.599607,84.2270508 C392.599607,83.1224813 391.704176,82.2270508 390.599607,82.2270508 C389.495037,82.2270508 388.599607,83.1224813 388.599607,84.2270508 C388.599607,85.3316203 389.495037,86.2270508 390.599607,86.2270508 Z M390.599607,93.2270508 C391.704176,93.2270508 392.599607,92.3316203 392.599607,91.2270508 C392.599607,90.1224813 391.704176,89.2270508 390.599607,89.2270508 C389.495037,89.2270508 388.599607,90.1224813 388.599607,91.2270508 C388.599607,92.3316203 389.495037,93.2270508 390.599607,93.2270508 Z M396.599607,74.2270508 L408.599607,74.2270508 C409.704176,74.2270508 410.599607,75.1224813 410.599607,76.2270508 L410.599607,76.2270508 C410.599607,77.3316203 409.704176,78.2270508 408.599607,78.2270508 L396.599607,78.2270508 C395.495037,78.2270508 394.599607,77.3316203 394.599607,76.2270508 L394.599607,76.2270508 C394.599607,75.1224813 395.495037,74.2270508 396.599607,74.2270508 Z M396.599607,82.2270508 L408.599607,82.2270508 C409.704176,82.2270508 410.599607,83.1224813 410.599607,84.2270508 L410.599607,84.2270508 C410.599607,85.3316203 409.704176,86.2270508 408.599607,86.2270508 L396.599607,86.2270508 C395.495037,86.2270508 394.599607,85.3316203 394.599607,84.2270508 L394.599607,84.2270508 C394.599607,83.1224813 395.495037,82.2270508 396.599607,82.2270508 Z M396.599607,89.2270508 L408.599607,89.2270508 C409.704176,89.2270508 410.599607,90.1224813 410.599607,91.2270508 L410.599607,91.2270508 C410.599607,92.3316203 409.704176,93.2270508 408.599607,93.2270508 L396.599607,93.2270508 C395.495037,93.2270508 394.599607,92.3316203 394.599607,91.2270508 L394.599607,91.2270508 C394.599607,90.1224813 395.495037,89.2270508 396.599607,89.2270508 Z M511.247068,13.7109375 C511.247068,16.233411 510.628421,18.1508723 509.39111,19.4633789 C508.1538,20.7758855 506.342294,21.4321289 503.95654,21.4321289 C501.604966,21.4321289 499.802005,20.7724675 498.547605,19.453125 C497.293204,18.1337825 496.666013,16.2129032 496.666013,13.6904297 C496.666013,11.1953 497.289786,9.2898015 498.537351,7.97387695 C499.784916,6.6579524 501.59813,6 503.977048,6 C506.362802,6 508.170889,6.6528255 509.401364,7.95849609 C510.631839,9.26416668 511.247068,11.181628 511.247068,13.7109375 Z M500.931638,13.7109375 C500.931638,16.6093895 501.939929,18.0585938 503.95654,18.0585938 C504.981936,18.0585938 505.742426,17.7065465 506.238034,17.0024414 C506.733642,16.2983363 506.981443,15.2011793 506.981443,13.7109375 C506.981443,12.2138597 506.730224,11.1081579 506.22778,10.3937988 C505.725336,9.67943979 504.9751,9.32226562 503.977048,9.32226562 C501.946764,9.32226562 500.931638,10.7851416 500.931638,13.7109375 Z M526.761228,21.2270508 L522.187985,21.2270508 L519.224607,15.4951172 L518.0249,16.2128906 L518.0249,21.2270508 L513.954099,21.2270508 L513.954099,6.23583984 L518.0249,6.23583984 L518.0249,12.7470703 C518.229979,12.343748 518.643549,11.7045942 519.265622,10.8295898 L522.413571,6.23583984 L526.843259,6.23583984 L522.116208,12.9521484 L526.761228,21.2270508 Z M384.638669,45.2270508 L379.93945,45.2270508 L379.93945,36.1567383 C379.93945,35.0551703 379.962888,34.0473679 380.009763,33.1333008 C379.720699,33.484865 379.361327,33.8520489 378.931638,34.2348633 L376.986325,35.840332 L374.583982,32.887207 L380.466794,28.0942383 L384.638669,28.0942383 L384.638669,45.2270508 Z M434.748044,64.2270508 L422.31445,64.2270508 L422.31445,61.1801758 L426.498044,56.949707 C427.693363,55.6997008 428.474605,54.8461937 428.841794,54.3891602 C429.208983,53.9321266 429.46484,53.5395524 429.609372,53.2114258 C429.753904,52.8832991 429.826169,52.5395526 429.826169,52.1801758 C429.826169,51.7348611 429.681639,51.3833021 429.392575,51.1254883 C429.103511,50.8676745 428.697265,50.7387695 428.173825,50.7387695 C427.63476,50.7387695 427.089844,50.8930649 426.53906,51.2016602 C425.988276,51.5102554 425.365235,51.965329 424.669919,52.5668945 L422.12695,49.590332 C423.009767,48.8012656 423.751947,48.2368181 424.353513,47.8969727 C424.955078,47.5571272 425.609369,47.2973642 426.316403,47.1176758 C427.023438,46.9379874 427.818352,46.8481445 428.701169,46.8481445 C429.81055,46.8481445 430.800774,47.0434551 431.671872,47.434082 C432.54297,47.824709 433.218745,48.381344 433.699216,49.1040039 C434.179687,49.8266638 434.419919,50.6372025 434.419919,51.5356445 C434.419919,52.2075229 434.335936,52.8286104 434.167966,53.3989258 C433.999996,53.9692411 433.740233,54.5297824 433.388669,55.0805664 C433.037105,55.6313504 432.570313,56.2114227 431.988278,56.8208008 C431.406244,57.4301788 430.166022,58.5864173 428.267575,60.2895508 L428.267575,60.4067383 L434.748044,60.4067383 L434.748044,64.2270508 Z M486.173825,107.809082 C486.173825,108.871587 485.84961,109.783688 485.201169,110.54541 C484.552728,111.307133 483.615238,111.859862 482.388669,112.203613 L482.388669,112.273926 C485.248058,112.633303 486.677732,113.984852 486.677732,116.328613 C486.677732,117.922371 486.046879,119.176265 484.785153,120.090332 C483.523428,121.004399 481.771493,121.461426 479.529294,121.461426 C478.607414,121.461426 477.753907,121.39502 476.968747,121.262207 C476.183587,121.129394 475.333986,120.887209 474.419919,120.535645 L474.419919,116.691895 C475.169923,117.074709 475.933587,117.357909 476.710935,117.541504 C477.488282,117.725099 478.205072,117.816895 478.861325,117.816895 C479.876955,117.816895 480.617182,117.674318 481.082028,117.38916 C481.546875,117.104002 481.779294,116.656741 481.779294,116.047363 C481.779294,115.578611 481.658202,115.217286 481.416013,114.963379 C481.173824,114.709471 480.783203,114.518067 480.244138,114.38916 C479.705073,114.260253 479.001955,114.195801 478.134763,114.195801 L477.080075,114.195801 L477.080075,110.715332 L478.1582,110.715332 C480.509775,110.715332 481.685544,110.113776 481.685544,108.910645 C481.685544,108.457517 481.511718,108.121583 481.16406,107.902832 C480.816402,107.684081 480.34961,107.574707 479.763669,107.574707 C478.669914,107.574707 477.537112,107.941891 476.365232,108.67627 L474.443357,105.58252 C475.349611,104.957516 476.277336,104.512208 477.22656,104.246582 C478.175783,103.980956 479.263663,103.848145 480.490232,103.848145 C482.263678,103.848145 483.654289,104.199704 484.662107,104.902832 C485.669924,105.605961 486.173825,106.574701 486.173825,107.809082 Z M516.173825,51.1704102 C516.173825,52.2329155 515.84961,53.1450157 515.201169,53.9067383 C514.552728,54.6684608 513.615238,55.2211897 512.388669,55.5649414 L512.388669,55.6352539 C515.248058,55.9946307 516.677732,57.3461797 516.677732,59.6899414 C516.677732,61.2836994 516.046879,62.5375931 514.785153,63.4516602 C513.523428,64.3657272 511.771493,64.8227539 509.529294,64.8227539 C508.607414,64.8227539 507.753907,64.7563483 506.968747,64.6235352 C506.183587,64.490722 505.333986,64.2485369 504.419919,63.8969727 L504.419919,60.0532227 C505.169923,60.4360371 505.933587,60.7192374 506.710935,60.902832 C507.488282,61.0864267 508.205072,61.1782227 508.861325,61.1782227 C509.876955,61.1782227 510.617182,61.035646 511.082028,60.7504883 C511.546875,60.4653306 511.779294,60.0180695 511.779294,59.4086914 C511.779294,58.9399391 511.658202,58.5786146 511.416013,58.324707 C511.173824,58.0707995 510.783203,57.8793952 510.244138,57.7504883 C509.705073,57.6215814 509.001955,57.5571289 508.134763,57.5571289 L507.080075,57.5571289 L507.080075,54.0766602 L508.1582,54.0766602 C510.509775,54.0766602 511.685544,53.4751037 511.685544,52.2719727 C511.685544,51.8188454 511.511718,51.4829113 511.16406,51.2641602 C510.816402,51.0454091 510.34961,50.9360352 509.763669,50.9360352 C508.669914,50.9360352 507.537112,51.303219 506.365232,52.0375977 L504.443357,48.9438477 C505.349611,48.3188445 506.277336,47.8735365 507.22656,47.6079102 C508.175783,47.3422838 509.263663,47.2094727 510.490232,47.2094727 C512.263678,47.2094727 513.654289,47.5610316 514.662107,48.2641602 C515.669924,48.9672887 516.173825,49.936029 516.173825,51.1704102 Z M456.208493,169.227051 L452.219724,169.227051 L452.219724,154.23584 L461.079099,154.23584 L461.079099,157.486328 L456.208493,157.486328 L456.208493,160.347168 L460.699704,160.347168 L460.699704,163.597656 L456.208493,163.597656 L456.208493,169.227051 Z M472.73779,169.227051 L471.999509,166.41748 L467.128903,166.41748 L466.370114,169.227051 L461.919919,169.227051 L466.811032,154.174316 L472.214841,154.174316 L477.167478,169.227051 L472.73779,169.227051 Z M471.158689,163.095215 L470.512693,160.634277 C470.362301,160.0874 470.179442,159.379887 469.964109,158.511719 C469.748775,157.64355 469.606931,157.021486 469.538571,156.645508 C469.477048,156.994142 469.355711,157.568355 469.174558,158.368164 C468.993405,159.167973 468.591797,160.743641 467.969724,163.095215 L471.158689,163.095215 Z M478.787595,169.227051 L478.787595,154.23584 L482.858396,154.23584 L482.858396,169.227051 L478.787595,169.227051 Z M486.09863,169.227051 L486.09863,154.23584 L490.148923,154.23584 L490.148923,165.956055 L495.921872,165.956055 L495.921872,169.227051 L486.09863,169.227051 Z M451.599607,12.2270508 C452.704176,12.2270508 453.599607,11.3316203 453.599607,10.2270508 C453.599607,9.12248128 452.704176,8.22705078 451.599607,8.22705078 C450.495037,8.22705078 449.599607,9.12248128 449.599607,10.2270508 C449.599607,11.3316203 450.495037,12.2270508 451.599607,12.2270508 Z M451.599607,20.2270508 C452.704176,20.2270508 453.599607,19.3316203 453.599607,18.2270508 C453.599607,17.1224813 452.704176,16.2270508 451.599607,16.2270508 C450.495037,16.2270508 449.599607,17.1224813 449.599607,18.2270508 C449.599607,19.3316203 450.495037,20.2270508 451.599607,20.2270508 Z M451.599607,27.2270508 C452.704176,27.2270508 453.599607,26.3316203 453.599607,25.2270508 C453.599607,24.1224813 452.704176,23.2270508 451.599607,23.2270508 C450.495037,23.2270508 449.599607,24.1224813 449.599607,25.2270508 C449.599607,26.3316203 450.495037,27.2270508 451.599607,27.2270508 Z M457.599607,8.22705078 L469.599607,8.22705078 C470.704176,8.22705078 471.599607,9.12248128 471.599607,10.2270508 L471.599607,10.2270508 C471.599607,11.3316203 470.704176,12.2270508 469.599607,12.2270508 L457.599607,12.2270508 C456.495037,12.2270508 455.599607,11.3316203 455.599607,10.2270508 L455.599607,10.2270508 C455.599607,9.12248128 456.495037,8.22705078 457.599607,8.22705078 Z M457.599607,16.2270508 L469.599607,16.2270508 C470.704176,16.2270508 471.599607,17.1224813 471.599607,18.2270508 L471.599607,18.2270508 C471.599607,19.3316203 470.704176,20.2270508 469.599607,20.2270508 L457.599607,20.2270508 C456.495037,20.2270508 455.599607,19.3316203 455.599607,18.2270508 L455.599607,18.2270508 C455.599607,17.1224813 456.495037,16.2270508 457.599607,16.2270508 Z M457.599607,23.2270508 L469.599607,23.2270508 C470.704176,23.2270508 471.599607,24.1224813 471.599607,25.2270508 L471.599607,25.2270508 C471.599607,26.3316203 470.704176,27.2270508 469.599607,27.2270508 L457.599607,27.2270508 C456.495037,27.2270508 455.599607,26.3316203 455.599607,25.2270508 L455.599607,25.2270508 C455.599607,24.1224813 456.495037,23.2270508 457.599607,23.2270508 Z M508.599607,144.227051 C509.704176,144.227051 510.599607,143.33162 510.599607,142.227051 C510.599607,141.122481 509.704176,140.227051 508.599607,140.227051 C507.495037,140.227051 506.599607,141.122481 506.599607,142.227051 C506.599607,143.33162 507.495037,144.227051 508.599607,144.227051 Z M508.599607,151.227051 C509.704176,151.227051 510.599607,150.33162 510.599607,149.227051 C510.599607,148.122481 509.704176,147.227051 508.599607,147.227051 C507.495037,147.227051 506.599607,148.122481 506.599607,149.227051 C506.599607,150.33162 507.495037,151.227051 508.599607,151.227051 Z M514.599607,132.227051 L526.599607,132.227051 C527.704176,132.227051 528.599607,133.122481 528.599607,134.227051 L528.599607,134.227051 C528.599607,135.33162 527.704176,136.227051 526.599607,136.227051 L514.599607,136.227051 C513.495037,136.227051 512.599607,135.33162 512.599607,134.227051 L512.599607,134.227051 C512.599607,133.122481 513.495037,132.227051 514.599607,132.227051 Z M514.599607,140.227051 L526.599607,140.227051 C527.704176,140.227051 528.599607,141.122481 528.599607,142.227051 L528.599607,142.227051 C528.599607,143.33162 527.704176,144.227051 526.599607,144.227051 L514.599607,144.227051 C513.495037,144.227051 512.599607,143.33162 512.599607,142.227051 L512.599607,142.227051 C512.599607,141.122481 513.495037,140.227051 514.599607,140.227051 Z M514.599607,147.227051 L526.599607,147.227051 C527.704176,147.227051 528.599607,148.122481 528.599607,149.227051 L528.599607,149.227051 C528.599607,150.33162 527.704176,151.227051 526.599607,151.227051 L514.599607,151.227051 C513.495037,151.227051 512.599607,150.33162 512.599607,149.227051 L512.599607,149.227051 C512.599607,148.122481 513.495037,147.227051 514.599607,147.227051 Z" id="OK" fill="url(#linearGradient-3)" opacity="0.2"></path>
    </g>
</svg>